<svg width="509" height="116" viewBox="0 0 509 116" fill="none" xmlns="http://www.w3.org/2000/svg">
<path d="M7.74998 36.3C7.24998 36.3 6.84998 36.1667 6.54998 35.9C6.28331 35.6 6.09998 35.2334 5.99998 34.8L0.0499756 2.75005C0.0499756 2.65005 0.033309 2.56671 -2.42889e-05 2.50005C-2.42889e-05 2.43338 -2.42889e-05 2.38338 -2.42889e-05 2.35005C-2.42889e-05 2.05005 0.0999757 1.80005 0.299976 1.60005C0.533309 1.40005 0.783309 1.30005 1.04998 1.30005H5.44998C6.28331 1.30005 6.74998 1.63338 6.84998 2.30005L11 24.95L15.5 10.3C15.6 10.0334 15.7666 9.76672 16 9.50005C16.2666 9.20005 16.65 9.05005 17.15 9.05005H19.85C20.3833 9.05005 20.7666 9.20005 21 9.50005C21.2333 9.76672 21.3833 10.0334 21.45 10.3L26 24.9L30.15 2.30005C30.25 1.63338 30.7166 1.30005 31.55 1.30005H35.95C36.2166 1.30005 36.45 1.40005 36.65 1.60005C36.85 1.80005 36.95 2.05005 36.95 2.35005C36.95 2.38338 36.95 2.43338 36.95 2.50005C36.95 2.56671 36.9333 2.65005 36.9 2.75005L30.95 34.8C30.8833 35.2334 30.7 35.6 30.4 35.9C30.1 36.1667 29.7 36.3 29.2 36.3H25.85C25.35 36.3 24.95 36.1667 24.65 35.9C24.3833 35.6334 24.2 35.35 24.1 35.05L18.5 18.35L12.9 35.05C12.7666 35.35 12.5666 35.6334 12.3 35.9C12.0333 36.1667 11.6333 36.3 11.1 36.3H7.74998ZM48.6961 36.8C46.9627 36.8 45.3961 36.4667 43.9961 35.8C42.5961 35.1 41.4794 34.1834 40.6461 33.05C39.8461 31.8834 39.4461 30.5834 39.4461 29.15C39.4461 26.8167 40.3794 24.9667 42.2461 23.6C44.1461 22.2 46.6461 21.2667 49.7461 20.8L56.5961 19.8V18.75C56.5961 17.35 56.2461 16.2667 55.5461 15.5C54.8461 14.7334 53.6461 14.35 51.9461 14.35C50.7461 14.35 49.7627 14.6 48.9961 15.1C48.2627 15.5667 47.7127 16.2 47.3461 17C47.0794 17.4334 46.6961 17.65 46.1961 17.65H42.2461C41.8794 17.65 41.5961 17.55 41.3961 17.35C41.2294 17.15 41.1461 16.8834 41.1461 16.55C41.1794 16.0167 41.3961 15.3667 41.7961 14.6C42.1961 13.8334 42.8294 13.1 43.6961 12.4C44.5627 11.6667 45.6794 11.05 47.0461 10.55C48.4127 10.05 50.0627 9.80005 51.9961 9.80005C54.0961 9.80005 55.8627 10.0667 57.2961 10.6C58.7627 11.1 59.9294 11.7834 60.7961 12.65C61.6627 13.5167 62.2961 14.5334 62.6961 15.7C63.0961 16.8667 63.2961 18.1 63.2961 19.4V35.1C63.2961 35.4334 63.1794 35.7167 62.9461 35.95C62.7127 36.1834 62.4294 36.3 62.0961 36.3H58.0461C57.6794 36.3 57.3794 36.1834 57.1461 35.95C56.9461 35.7167 56.8461 35.4334 56.8461 35.1V33.15C56.4127 33.7834 55.8294 34.3834 55.0961 34.95C54.3627 35.4834 53.4627 35.9334 52.3961 36.3C51.3627 36.6334 50.1294 36.8 48.6961 36.8ZM50.3961 32.05C51.5627 32.05 52.6127 31.8 53.5461 31.3C54.5127 30.8 55.2627 30.0334 55.7961 29C56.3627 27.9334 56.6461 26.6 56.6461 25V23.95L51.6461 24.75C49.6794 25.05 48.2127 25.5334 47.2461 26.2C46.2794 26.8667 45.7961 27.6834 45.7961 28.65C45.7961 29.3834 46.0127 30.0167 46.4461 30.55C46.9127 31.05 47.4961 31.4334 48.1961 31.7C48.8961 31.9334 49.6294 32.05 50.3961 32.05ZM70.9105 36.3C70.5772 36.3 70.2939 36.1834 70.0605 35.95C69.8272 35.7167 69.7105 35.4334 69.7105 35.1V11.5C69.7105 11.1667 69.8272 10.8834 70.0605 10.65C70.2939 10.4167 70.5772 10.3 70.9105 10.3H75.0105C75.3439 10.3 75.6272 10.4167 75.8605 10.65C76.0939 10.8834 76.2105 11.1667 76.2105 11.5V13.55C77.0772 12.4834 78.1772 11.6 79.5105 10.9C80.8772 10.1667 82.5605 9.80005 84.5605 9.80005C86.5939 9.80005 88.3605 10.2667 89.8605 11.2C91.3605 12.1 92.5105 13.3834 93.3105 15.05C94.1439 16.7167 94.5605 18.7167 94.5605 21.05V35.1C94.5605 35.4334 94.4439 35.7167 94.2105 35.95C93.9772 36.1834 93.6939 36.3 93.3605 36.3H88.9605C88.6272 36.3 88.3439 36.1834 88.1105 35.95C87.8772 35.7167 87.7605 35.4334 87.7605 35.1V21.35C87.7605 19.4167 87.2772 17.9 86.3105 16.8C85.3772 15.7 84.0105 15.15 82.2105 15.15C80.4772 15.15 79.0939 15.7 78.0605 16.8C77.0272 17.9 76.5105 19.4167 76.5105 21.35V35.1C76.5105 35.4334 76.3939 35.7167 76.1605 35.95C75.9272 36.1834 75.6439 36.3 75.3105 36.3H70.9105ZM112.369 36.3C110.369 36.3 108.685 35.95 107.319 35.25C105.952 34.55 104.935 33.5167 104.269 32.15C103.602 30.75 103.269 29.0167 103.269 26.95V15.6H99.3187C98.9854 15.6 98.7021 15.4834 98.4687 15.25C98.2354 15.0167 98.1187 14.7334 98.1187 14.4V11.5C98.1187 11.1667 98.2354 10.8834 98.4687 10.65C98.7021 10.4167 98.9854 10.3 99.3187 10.3H103.269V2.00005C103.269 1.66671 103.369 1.38338 103.569 1.15005C103.802 0.916714 104.102 0.800047 104.469 0.800047H108.519C108.852 0.800047 109.135 0.916714 109.369 1.15005C109.602 1.38338 109.719 1.66671 109.719 2.00005V10.3H115.969C116.302 10.3 116.585 10.4167 116.819 10.65C117.052 10.8834 117.169 11.1667 117.169 11.5V14.4C117.169 14.7334 117.052 15.0167 116.819 15.25C116.585 15.4834 116.302 15.6 115.969 15.6H109.719V26.45C109.719 27.8167 109.952 28.8834 110.419 29.65C110.919 30.4167 111.769 30.8 112.969 30.8H116.419C116.752 30.8 117.035 30.9167 117.269 31.15C117.502 31.3834 117.619 31.6667 117.619 32V35.1C117.619 35.4334 117.502 35.7167 117.269 35.95C117.035 36.1834 116.752 36.3 116.419 36.3H112.369ZM141.03 36.8C139.297 36.8 137.73 36.4667 136.33 35.8C134.93 35.1 133.813 34.1834 132.98 33.05C132.18 31.8834 131.78 30.5834 131.78 29.15C131.78 26.8167 132.713 24.9667 134.58 23.6C136.48 22.2 138.98 21.2667 142.08 20.8L148.93 19.8V18.75C148.93 17.35 148.58 16.2667 147.88 15.5C147.18 14.7334 145.98 14.35 144.28 14.35C143.08 14.35 142.097 14.6 141.33 15.1C140.597 15.5667 140.047 16.2 139.68 17C139.413 17.4334 139.03 17.65 138.53 17.65H134.58C134.213 17.65 133.93 17.55 133.73 17.35C133.563 17.15 133.48 16.8834 133.48 16.55C133.513 16.0167 133.73 15.3667 134.13 14.6C134.53 13.8334 135.163 13.1 136.03 12.4C136.897 11.6667 138.013 11.05 139.38 10.55C140.747 10.05 142.397 9.80005 144.33 9.80005C146.43 9.80005 148.197 10.0667 149.63 10.6C151.097 11.1 152.263 11.7834 153.13 12.65C153.997 13.5167 154.63 14.5334 155.03 15.7C155.43 16.8667 155.63 18.1 155.63 19.4V35.1C155.63 35.4334 155.513 35.7167 155.28 35.95C155.047 36.1834 154.763 36.3 154.43 36.3H150.38C150.013 36.3 149.713 36.1834 149.48 35.95C149.28 35.7167 149.18 35.4334 149.18 35.1V33.15C148.747 33.7834 148.163 34.3834 147.43 34.95C146.697 35.4834 145.797 35.9334 144.73 36.3C143.697 36.6334 142.463 36.8 141.03 36.8ZM142.73 32.05C143.897 32.05 144.947 31.8 145.88 31.3C146.847 30.8 147.597 30.0334 148.13 29C148.697 27.9334 148.98 26.6 148.98 25V23.95L143.98 24.75C142.013 25.05 140.547 25.5334 139.58 26.2C138.613 26.8667 138.13 27.6834 138.13 28.65C138.13 29.3834 138.347 30.0167 138.78 30.55C139.247 31.05 139.83 31.4334 140.53 31.7C141.23 31.9334 141.963 32.05 142.73 32.05ZM163.245 36.3C162.911 36.3 162.628 36.1834 162.395 35.95C162.161 35.7167 162.045 35.4334 162.045 35.1V11.5C162.045 11.1667 162.161 10.8834 162.395 10.65C162.628 10.4167 162.911 10.3 163.245 10.3H167.345C167.678 10.3 167.961 10.4167 168.195 10.65C168.428 10.8834 168.545 11.1667 168.545 11.5V13.55C169.411 12.4834 170.511 11.6 171.845 10.9C173.211 10.1667 174.895 9.80005 176.895 9.80005C178.928 9.80005 180.695 10.2667 182.195 11.2C183.695 12.1 184.845 13.3834 185.645 15.05C186.478 16.7167 186.895 18.7167 186.895 21.05V35.1C186.895 35.4334 186.778 35.7167 186.545 35.95C186.311 36.1834 186.028 36.3 185.695 36.3H181.295C180.961 36.3 180.678 36.1834 180.445 35.95C180.211 35.7167 180.095 35.4334 180.095 35.1V21.35C180.095 19.4167 179.611 17.9 178.645 16.8C177.711 15.7 176.345 15.15 174.545 15.15C172.811 15.15 171.428 15.7 170.395 16.8C169.361 17.9 168.845 19.4167 168.845 21.35V35.1C168.845 35.4334 168.728 35.7167 168.495 35.95C168.261 36.1834 167.978 36.3 167.645 36.3H163.245ZM197.116 45.8C196.849 45.8 196.616 45.7 196.416 45.5C196.216 45.3 196.116 45.0667 196.116 44.8C196.116 44.6667 196.116 44.5334 196.116 44.4C196.149 44.3 196.216 44.1667 196.316 44L200.216 34.75L190.616 12.1C190.482 11.7667 190.416 11.5334 190.416 11.4C190.449 11.1 190.566 10.85 190.766 10.65C190.966 10.4167 191.216 10.3 191.516 10.3H195.566C195.966 10.3 196.266 10.4 196.466 10.6C196.666 10.8 196.816 11.0167 196.916 11.25L203.566 27.6L210.416 11.25C210.516 10.9834 210.666 10.7667 210.866 10.6C211.066 10.4 211.366 10.3 211.766 10.3H215.766C216.032 10.3 216.266 10.4 216.466 10.6C216.699 10.8 216.816 11.0334 216.816 11.3C216.816 11.5 216.749 11.7667 216.616 12.1L202.466 44.85C202.332 45.1167 202.166 45.3334 201.966 45.5C201.766 45.7 201.466 45.8 201.066 45.8H197.116ZM232.877 36.3C230.877 36.3 229.193 35.95 227.827 35.25C226.46 34.55 225.443 33.5167 224.777 32.15C224.11 30.75 223.777 29.0167 223.777 26.95V15.6H219.827C219.493 15.6 219.21 15.4834 218.977 15.25C218.743 15.0167 218.627 14.7334 218.627 14.4V11.5C218.627 11.1667 218.743 10.8834 218.977 10.65C219.21 10.4167 219.493 10.3 219.827 10.3H223.777V2.00005C223.777 1.66671 223.877 1.38338 224.077 1.15005C224.31 0.916714 224.61 0.800047 224.977 0.800047H229.027C229.36 0.800047 229.643 0.916714 229.877 1.15005C230.11 1.38338 230.227 1.66671 230.227 2.00005V10.3H236.477C236.81 10.3 237.093 10.4167 237.327 10.65C237.56 10.8834 237.677 11.1667 237.677 11.5V14.4C237.677 14.7334 237.56 15.0167 237.327 15.25C237.093 15.4834 236.81 15.6 236.477 15.6H230.227V26.45C230.227 27.8167 230.46 28.8834 230.927 29.65C231.427 30.4167 232.277 30.8 233.477 30.8H236.927C237.26 30.8 237.543 30.9167 237.777 31.15C238.01 31.3834 238.127 31.6667 238.127 32V35.1C238.127 35.4334 238.01 35.7167 237.777 35.95C237.543 36.1834 237.26 36.3 236.927 36.3H232.877ZM243.812 36.3C243.479 36.3 243.195 36.1834 242.962 35.95C242.729 35.7167 242.612 35.4334 242.612 35.1V2.00005C242.612 1.66671 242.729 1.38338 242.962 1.15005C243.195 0.916714 243.479 0.800047 243.812 0.800047H248.262C248.629 0.800047 248.912 0.916714 249.112 1.15005C249.345 1.38338 249.462 1.66671 249.462 2.00005V13.4C250.362 12.3334 251.462 11.4667 252.762 10.8C254.062 10.1334 255.662 9.80005 257.562 9.80005C259.595 9.80005 261.362 10.2667 262.862 11.2C264.395 12.1 265.579 13.3834 266.412 15.05C267.245 16.7167 267.662 18.7167 267.662 21.05V35.1C267.662 35.4334 267.545 35.7167 267.312 35.95C267.079 36.1834 266.795 36.3 266.462 36.3H261.962C261.629 36.3 261.345 36.1834 261.112 35.95C260.879 35.7167 260.762 35.4334 260.762 35.1V21.35C260.762 19.4167 260.279 17.9 259.312 16.8C258.379 15.7 257.012 15.15 255.212 15.15C253.479 15.15 252.079 15.7 251.012 16.8C249.979 17.9 249.462 19.4167 249.462 21.35V35.1C249.462 35.4334 249.345 35.7167 249.112 35.95C248.912 36.1834 248.629 36.3 248.262 36.3H243.812ZM275.207 36.3C274.874 36.3 274.591 36.1834 274.357 35.95C274.124 35.7167 274.007 35.4334 274.007 35.1V11.5C274.007 11.1667 274.124 10.8834 274.357 10.65C274.591 10.4167 274.874 10.3 275.207 10.3H279.357C279.724 10.3 280.007 10.4167 280.207 10.65C280.441 10.8834 280.557 11.1667 280.557 11.5V35.1C280.557 35.4334 280.441 35.7167 280.207 35.95C280.007 36.1834 279.724 36.3 279.357 36.3H275.207ZM275.007 6.00005C274.641 6.00005 274.341 5.90005 274.107 5.70005C273.907 5.46671 273.807 5.16671 273.807 4.80005V1.20005C273.807 0.866715 273.907 0.583381 274.107 0.350047C274.341 0.116714 274.641 4.82798e-05 275.007 4.82798e-05H279.557C279.924 4.82798e-05 280.224 0.116714 280.457 0.350047C280.691 0.583381 280.807 0.866715 280.807 1.20005V4.80005C280.807 5.16671 280.691 5.46671 280.457 5.70005C280.224 5.90005 279.924 6.00005 279.557 6.00005H275.007ZM288.391 36.3C288.058 36.3 287.774 36.1834 287.541 35.95C287.308 35.7167 287.191 35.4334 287.191 35.1V11.5C287.191 11.1667 287.308 10.8834 287.541 10.65C287.774 10.4167 288.058 10.3 288.391 10.3H292.491C292.824 10.3 293.108 10.4167 293.341 10.65C293.574 10.8834 293.691 11.1667 293.691 11.5V13.55C294.558 12.4834 295.658 11.6 296.991 10.9C298.358 10.1667 300.041 9.80005 302.041 9.80005C304.074 9.80005 305.841 10.2667 307.341 11.2C308.841 12.1 309.991 13.3834 310.791 15.05C311.624 16.7167 312.041 18.7167 312.041 21.05V35.1C312.041 35.4334 311.924 35.7167 311.691 35.95C311.458 36.1834 311.174 36.3 310.841 36.3H306.441C306.108 36.3 305.824 36.1834 305.591 35.95C305.358 35.7167 305.241 35.4334 305.241 35.1V21.35C305.241 19.4167 304.758 17.9 303.791 16.8C302.858 15.7 301.491 15.15 299.691 15.15C297.958 15.15 296.574 15.7 295.541 16.8C294.508 17.9 293.991 19.4167 293.991 21.35V35.1C293.991 35.4334 293.874 35.7167 293.641 35.95C293.408 36.1834 293.124 36.3 292.791 36.3H288.391ZM330.142 47.3C327.709 47.3 325.709 46.9834 324.142 46.35C322.575 45.7167 321.342 44.95 320.442 44.05C319.542 43.15 318.892 42.25 318.492 41.35C318.125 40.4834 317.925 39.8 317.892 39.3C317.859 38.9667 317.959 38.6667 318.192 38.4C318.459 38.1667 318.759 38.05 319.092 38.05H323.442C323.775 38.05 324.042 38.1167 324.242 38.25C324.442 38.4167 324.609 38.7 324.742 39.1C324.942 39.5334 325.209 40 325.542 40.5C325.875 41 326.375 41.4167 327.042 41.75C327.742 42.1167 328.692 42.3 329.892 42.3C331.159 42.3 332.225 42.1167 333.092 41.75C333.959 41.3834 334.609 40.7667 335.042 39.9C335.509 39.0334 335.742 37.8334 335.742 36.3V32.9C334.942 33.8667 333.909 34.65 332.642 35.25C331.409 35.85 329.875 36.15 328.042 36.15C326.242 36.15 324.692 35.8667 323.392 35.3C322.092 34.7 321.009 33.8834 320.142 32.85C319.275 31.7834 318.609 30.5334 318.142 29.1C317.709 27.6667 317.459 26.0834 317.392 24.35C317.359 23.45 317.359 22.55 317.392 21.65C317.459 19.9834 317.709 18.4334 318.142 17C318.575 15.5667 319.225 14.3167 320.092 13.25C320.992 12.15 322.092 11.3 323.392 10.7C324.692 10.1 326.242 9.80005 328.042 9.80005C329.942 9.80005 331.542 10.1667 332.842 10.9C334.142 11.6 335.209 12.4834 336.042 13.55V11.55C336.042 11.1834 336.159 10.8834 336.392 10.65C336.625 10.4167 336.909 10.3 337.242 10.3H341.292C341.625 10.3 341.909 10.4167 342.142 10.65C342.375 10.8834 342.492 11.1834 342.492 11.55L342.542 35.65C342.542 38.05 342.092 40.1167 341.192 41.85C340.292 43.5834 338.925 44.9167 337.092 45.85C335.292 46.8167 332.975 47.3 330.142 47.3ZM329.892 30.85C331.259 30.85 332.359 30.55 333.192 29.95C334.025 29.35 334.642 28.5667 335.042 27.6C335.442 26.6334 335.675 25.65 335.742 24.65C335.775 24.2167 335.792 23.6667 335.792 23C335.792 22.3334 335.775 21.8 335.742 21.4C335.675 20.3667 335.442 19.3834 335.042 18.45C334.642 17.4834 334.025 16.7 333.192 16.1C332.359 15.4667 331.259 15.15 329.892 15.15C328.525 15.15 327.425 15.4667 326.592 16.1C325.759 16.7 325.159 17.5 324.792 18.5C324.459 19.5 324.259 20.6 324.192 21.8C324.125 22.6 324.125 23.4167 324.192 24.25C324.259 25.4167 324.459 26.5167 324.792 27.55C325.159 28.55 325.759 29.35 326.592 29.95C327.425 30.55 328.525 30.85 329.892 30.85ZM371.353 36.3C369.353 36.3 367.67 35.95 366.303 35.25C364.936 34.55 363.92 33.5167 363.253 32.15C362.586 30.75 362.253 29.0167 362.253 26.95V15.6H358.303C357.97 15.6 357.686 15.4834 357.453 15.25C357.22 15.0167 357.103 14.7334 357.103 14.4V11.5C357.103 11.1667 357.22 10.8834 357.453 10.65C357.686 10.4167 357.97 10.3 358.303 10.3H362.253V2.00005C362.253 1.66671 362.353 1.38338 362.553 1.15005C362.786 0.916714 363.086 0.800047 363.453 0.800047H367.503C367.836 0.800047 368.12 0.916714 368.353 1.15005C368.586 1.38338 368.703 1.66671 368.703 2.00005V10.3H374.953C375.286 10.3 375.57 10.4167 375.803 10.65C376.036 10.8834 376.153 11.1667 376.153 11.5V14.4C376.153 14.7334 376.036 15.0167 375.803 15.25C375.57 15.4834 375.286 15.6 374.953 15.6H368.703V26.45C368.703 27.8167 368.936 28.8834 369.403 29.65C369.903 30.4167 370.753 30.8 371.953 30.8H375.403C375.736 30.8 376.02 30.9167 376.253 31.15C376.486 31.3834 376.603 31.6667 376.603 32V35.1C376.603 35.4334 376.486 35.7167 376.253 35.95C376.02 36.1834 375.736 36.3 375.403 36.3H371.353ZM392.539 36.8C389.872 36.8 387.622 36.3334 385.789 35.4C383.989 34.4667 382.605 33.15 381.639 31.45C380.705 29.75 380.172 27.7667 380.039 25.5C380.005 24.9 379.989 24.1667 379.989 23.3C379.989 22.4334 380.005 21.7 380.039 21.1C380.172 18.8 380.722 16.8167 381.689 15.15C382.689 13.45 384.089 12.1334 385.889 11.2C387.722 10.2667 389.939 9.80005 392.539 9.80005C395.139 9.80005 397.339 10.2667 399.139 11.2C400.972 12.1334 402.372 13.45 403.339 15.15C404.339 16.8167 404.905 18.8 405.039 21.1C405.072 21.7 405.089 22.4334 405.089 23.3C405.089 24.1667 405.072 24.9 405.039 25.5C404.905 27.7667 404.355 29.75 403.389 31.45C402.455 33.15 401.072 34.4667 399.239 35.4C397.439 36.3334 395.205 36.8 392.539 36.8ZM392.539 31.85C394.305 31.85 395.672 31.3 396.639 30.2C397.605 29.0667 398.139 27.4167 398.239 25.25C398.272 24.75 398.289 24.1 398.289 23.3C398.289 22.5 398.272 21.85 398.239 21.35C398.139 19.2167 397.605 17.5834 396.639 16.45C395.672 15.3167 394.305 14.75 392.539 14.75C390.772 14.75 389.405 15.3167 388.439 16.45C387.472 17.5834 386.939 19.2167 386.839 21.35C386.805 21.85 386.789 22.5 386.789 23.3C386.789 24.1 386.805 24.75 386.839 25.25C386.939 27.4167 387.472 29.0667 388.439 30.2C389.405 31.3 390.772 31.85 392.539 31.85ZM436.454 36.8C434.521 36.8 432.904 36.4667 431.604 35.8C430.338 35.1334 429.288 34.2834 428.454 33.25V35.1C428.454 35.4334 428.338 35.7167 428.104 35.95C427.904 36.1834 427.621 36.3 427.254 36.3H423.304C422.971 36.3 422.688 36.1834 422.454 35.95C422.221 35.7167 422.104 35.4334 422.104 35.1V2.00005C422.104 1.66671 422.221 1.38338 422.454 1.15005C422.688 0.916714 422.971 0.800047 423.304 0.800047H427.554C427.921 0.800047 428.204 0.916714 428.404 1.15005C428.638 1.38338 428.754 1.66671 428.754 2.00005V13.1C429.588 12.1334 430.621 11.35 431.854 10.75C433.121 10.1167 434.654 9.80005 436.454 9.80005C438.221 9.80005 439.754 10.1 441.054 10.7C442.354 11.3 443.438 12.15 444.304 13.25C445.204 14.3167 445.888 15.5667 446.354 17C446.821 18.4334 447.071 19.9834 447.104 21.65C447.138 22.25 447.154 22.8 447.154 23.3C447.154 23.7667 447.138 24.3 447.104 24.9C447.038 26.6334 446.771 28.2334 446.304 29.7C445.838 31.1334 445.171 32.3834 444.304 33.45C443.438 34.5167 442.354 35.35 441.054 35.95C439.754 36.5167 438.221 36.8 436.454 36.8ZM434.604 31.45C436.038 31.45 437.154 31.15 437.954 30.55C438.754 29.9167 439.321 29.1 439.654 28.1C440.021 27.1 440.238 26 440.304 24.8C440.371 23.8 440.371 22.8 440.304 21.8C440.238 20.6 440.021 19.5 439.654 18.5C439.321 17.5 438.754 16.7 437.954 16.1C437.154 15.4667 436.038 15.15 434.604 15.15C433.271 15.15 432.188 15.45 431.354 16.05C430.521 16.65 429.888 17.4167 429.454 18.35C429.021 19.25 428.788 20.2 428.754 21.2C428.721 21.8 428.704 22.45 428.704 23.15C428.704 23.8167 428.721 24.45 428.754 25.05C428.821 26.0834 429.038 27.1 429.404 28.1C429.804 29.0667 430.421 29.8667 431.254 30.5C432.121 31.1334 433.238 31.45 434.604 31.45ZM463.918 36.8C460.218 36.8 457.285 35.7334 455.118 33.6C452.952 31.4667 451.785 28.4334 451.618 24.5C451.585 24.1667 451.568 23.75 451.568 23.25C451.568 22.7167 451.585 22.3 451.618 22C451.752 19.5 452.318 17.3334 453.318 15.5C454.352 13.6667 455.768 12.2667 457.568 11.3C459.368 10.3 461.485 9.80005 463.918 9.80005C466.618 9.80005 468.885 10.3667 470.718 11.5C472.552 12.6 473.935 14.15 474.868 16.15C475.802 18.1167 476.268 20.4 476.268 23V24.05C476.268 24.3834 476.152 24.6667 475.918 24.9C475.685 25.1334 475.385 25.25 475.018 25.25H458.418C458.418 25.25 458.418 25.3 458.418 25.4C458.418 25.5 458.418 25.5834 458.418 25.65C458.452 26.8167 458.668 27.9 459.068 28.9C459.502 29.8667 460.118 30.65 460.918 31.25C461.752 31.85 462.735 32.15 463.868 32.15C464.802 32.15 465.585 32.0167 466.218 31.75C466.852 31.45 467.368 31.1167 467.768 30.75C468.168 30.3834 468.452 30.0834 468.618 29.85C468.918 29.45 469.152 29.2167 469.318 29.15C469.518 29.05 469.802 29 470.168 29H474.468C474.802 29 475.068 29.1 475.268 29.3C475.502 29.5 475.602 29.75 475.568 30.05C475.535 30.5834 475.252 31.2334 474.718 32C474.218 32.7667 473.485 33.5167 472.518 34.25C471.552 34.9834 470.335 35.6 468.868 36.1C467.435 36.5667 465.785 36.8 463.918 36.8ZM458.418 21.05H469.468V20.9C469.468 19.6 469.252 18.4667 468.818 17.5C468.385 16.5334 467.752 15.7667 466.918 15.2C466.085 14.6334 465.085 14.35 463.918 14.35C462.752 14.35 461.752 14.6334 460.918 15.2C460.085 15.7667 459.452 16.5334 459.018 17.5C458.618 18.4667 458.418 19.6 458.418 20.9V21.05ZM12.6 106.8C8.89998 106.8 5.96664 105.733 3.79998 103.6C1.63331 101.467 0.466642 98.4334 0.299976 94.5C0.266642 94.1667 0.249976 93.75 0.249976 93.25C0.249976 92.7167 0.266642 92.3 0.299976 92C0.433309 89.5 0.999976 87.3334 1.99998 85.5C3.03331 83.6667 4.44998 82.2667 6.24998 81.3C8.04998 80.3 10.1666 79.8 12.6 79.8C15.3 79.8 17.5666 80.3667 19.4 81.5C21.2333 82.6 22.6166 84.15 23.55 86.15C24.4833 88.1167 24.95 90.4 24.95 93V94.05C24.95 94.3834 24.8333 94.6667 24.6 94.9C24.3666 95.1334 24.0666 95.25 23.7 95.25H7.09998C7.09998 95.25 7.09998 95.3 7.09998 95.4C7.09998 95.5 7.09998 95.5834 7.09998 95.65C7.13331 96.8167 7.34998 97.9 7.74998 98.9C8.18331 99.8667 8.79998 100.65 9.59998 101.25C10.4333 101.85 11.4166 102.15 12.55 102.15C13.4833 102.15 14.2666 102.017 14.9 101.75C15.5333 101.45 16.05 101.117 16.45 100.75C16.85 100.383 17.1333 100.083 17.3 99.85C17.6 99.45 17.8333 99.2167 18 99.15C18.2 99.05 18.4833 99 18.85 99H23.15C23.4833 99 23.75 99.1 23.95 99.3C24.1833 99.5 24.2833 99.75 24.25 100.05C24.2166 100.583 23.9333 101.233 23.4 102C22.9 102.767 22.1666 103.517 21.2 104.25C20.2333 104.983 19.0166 105.6 17.55 106.1C16.1166 106.567 14.4666 106.8 12.6 106.8ZM7.09998 91.05H18.15V90.9C18.15 89.6 17.9333 88.4667 17.5 87.5C17.0666 86.5334 16.4333 85.7667 15.6 85.2C14.7666 84.6334 13.7666 84.35 12.6 84.35C11.4333 84.35 10.4333 84.6334 9.59998 85.2C8.76664 85.7667 8.13331 86.5334 7.69998 87.5C7.29998 88.4667 7.09998 89.6 7.09998 90.9V91.05ZM37.8074 106.8C36.0741 106.8 34.5074 106.467 33.1074 105.8C31.7074 105.1 30.5907 104.183 29.7574 103.05C28.9574 101.883 28.5574 100.583 28.5574 99.15C28.5574 96.8167 29.4907 94.9667 31.3574 93.6C33.2574 92.2 35.7574 91.2667 38.8574 90.8L45.7074 89.8V88.75C45.7074 87.35 45.3574 86.2667 44.6574 85.5C43.9574 84.7334 42.7574 84.35 41.0574 84.35C39.8574 84.35 38.8741 84.6 38.1074 85.1C37.3741 85.5667 36.8241 86.2 36.4574 87C36.1907 87.4334 35.8074 87.65 35.3074 87.65H31.3574C30.9907 87.65 30.7074 87.55 30.5074 87.35C30.3407 87.15 30.2574 86.8834 30.2574 86.55C30.2907 86.0167 30.5074 85.3667 30.9074 84.6C31.3074 83.8334 31.9407 83.1 32.8074 82.4C33.6741 81.6667 34.7907 81.05 36.1574 80.55C37.5241 80.05 39.1741 79.8 41.1074 79.8C43.2074 79.8 44.9741 80.0667 46.4074 80.6C47.8741 81.1 49.0407 81.7834 49.9074 82.65C50.7741 83.5167 51.4074 84.5334 51.8074 85.7C52.2074 86.8667 52.4074 88.1 52.4074 89.4V105.1C52.4074 105.433 52.2907 105.717 52.0574 105.95C51.8241 106.183 51.5407 106.3 51.2074 106.3H47.1574C46.7907 106.3 46.4907 106.183 46.2574 105.95C46.0574 105.717 45.9574 105.433 45.9574 105.1V103.15C45.5241 103.783 44.9407 104.383 44.2074 104.95C43.4741 105.483 42.5741 105.933 41.5074 106.3C40.4741 106.633 39.2407 106.8 37.8074 106.8ZM39.5074 102.05C40.6741 102.05 41.7241 101.8 42.6574 101.3C43.6241 100.8 44.3741 100.033 44.9074 99C45.4741 97.9334 45.7574 96.6 45.7574 95V93.95L40.7574 94.75C38.7907 95.05 37.3241 95.5334 36.3574 96.2C35.3907 96.8667 34.9074 97.6834 34.9074 98.65C34.9074 99.3834 35.1241 100.017 35.5574 100.55C36.0241 101.05 36.6074 101.433 37.3074 101.7C38.0074 101.933 38.7407 102.05 39.5074 102.05ZM68.6719 106.8C66.6719 106.8 64.9552 106.567 63.5219 106.1C62.1219 105.633 60.9719 105.05 60.0719 104.35C59.1719 103.65 58.5052 102.95 58.0719 102.25C57.6385 101.55 57.4052 100.967 57.3719 100.5C57.3385 100.133 57.4385 99.85 57.6719 99.65C57.9385 99.4167 58.2219 99.3 58.5219 99.3H62.4719C62.6052 99.3 62.7219 99.3167 62.8219 99.35C62.9219 99.3834 63.0552 99.4834 63.2219 99.65C63.6552 100.017 64.1052 100.4 64.5719 100.8C65.0719 101.2 65.6552 101.55 66.3219 101.85C66.9885 102.117 67.8219 102.25 68.8219 102.25C70.1219 102.25 71.2052 102 72.0719 101.5C72.9719 100.967 73.4219 100.217 73.4219 99.25C73.4219 98.55 73.2219 97.9834 72.8219 97.55C72.4552 97.1167 71.7552 96.7334 70.7219 96.4C69.6885 96.0334 68.2219 95.65 66.3219 95.25C64.4552 94.8167 62.9052 94.2667 61.6719 93.6C60.4385 92.9334 59.5219 92.1 58.9219 91.1C58.3219 90.1 58.0219 88.9334 58.0219 87.6C58.0219 86.3 58.4052 85.0667 59.1719 83.9C59.9719 82.7 61.1385 81.7167 62.6719 80.95C64.2385 80.1834 66.1719 79.8 68.4719 79.8C70.2719 79.8 71.8385 80.0334 73.1719 80.5C74.5052 80.9334 75.6052 81.4834 76.4719 82.15C77.3719 82.8167 78.0552 83.5 78.5219 84.2C78.9885 84.8667 79.2385 85.45 79.2719 85.95C79.3052 86.3167 79.2052 86.6167 78.9719 86.85C78.7385 87.05 78.4719 87.15 78.1719 87.15H74.4719C74.3052 87.15 74.1552 87.1167 74.0219 87.05C73.8885 86.9834 73.7552 86.9 73.6219 86.8C73.2552 86.4667 72.8552 86.1167 72.4219 85.75C71.9885 85.3834 71.4552 85.0667 70.8219 84.8C70.2219 84.5 69.4219 84.35 68.4219 84.35C67.1552 84.35 66.1885 84.6334 65.5219 85.2C64.8552 85.7334 64.5219 86.4167 64.5219 87.25C64.5219 87.8167 64.6719 88.3167 64.9719 88.75C65.3052 89.15 65.9552 89.5334 66.9219 89.9C67.8885 90.2667 69.3552 90.65 71.3219 91.05C73.5552 91.45 75.3219 92.05 76.6219 92.85C77.9552 93.6167 78.8885 94.5167 79.4219 95.55C79.9885 96.55 80.2719 97.6667 80.2719 98.9C80.2719 100.4 79.8219 101.75 78.9219 102.95C78.0552 104.15 76.7552 105.1 75.0219 105.8C73.3219 106.467 71.2052 106.8 68.6719 106.8ZM89.1566 115.8C88.89 115.8 88.6566 115.7 88.4566 115.5C88.2566 115.3 88.1566 115.067 88.1566 114.8C88.1566 114.667 88.1566 114.533 88.1566 114.4C88.1899 114.3 88.2566 114.167 88.3566 114L92.2566 104.75L82.6566 82.1C82.5233 81.7667 82.4566 81.5334 82.4566 81.4C82.4899 81.1 82.6066 80.85 82.8066 80.65C83.0066 80.4167 83.2566 80.3 83.5566 80.3H87.6066C88.0066 80.3 88.3066 80.4 88.5066 80.6C88.7066 80.8 88.8566 81.0167 88.9566 81.25L95.6066 97.6L102.457 81.25C102.557 80.9834 102.707 80.7667 102.907 80.6C103.107 80.4 103.407 80.3 103.807 80.3H107.807C108.073 80.3 108.307 80.4 108.507 80.6C108.74 80.8 108.857 81.0334 108.857 81.3C108.857 81.5 108.79 81.7667 108.657 82.1L94.5066 114.85C94.3733 115.117 94.2066 115.333 94.0066 115.5C93.8066 115.7 93.5066 115.8 93.1066 115.8H89.1566ZM129.252 106.3C128.785 106.3 128.435 106.183 128.202 105.95C127.969 105.717 127.769 105.417 127.602 105.05L120.452 81.85C120.419 81.6834 120.402 81.5334 120.402 81.4C120.402 81.1 120.502 80.85 120.702 80.65C120.935 80.4167 121.185 80.3 121.452 80.3H125.152C125.552 80.3 125.869 80.4167 126.102 80.65C126.335 80.85 126.469 81.05 126.502 81.25L131.402 97.8L136.602 81.4C136.669 81.1667 136.819 80.9334 137.052 80.7C137.285 80.4334 137.635 80.3 138.102 80.3H140.602C141.069 80.3 141.419 80.4334 141.652 80.7C141.885 80.9334 142.035 81.1667 142.102 81.4L147.302 97.8L152.202 81.25C152.235 81.05 152.352 80.85 152.552 80.65C152.785 80.4167 153.102 80.3 153.502 80.3H157.202C157.502 80.3 157.752 80.4167 157.952 80.65C158.185 80.85 158.302 81.1 158.302 81.4C158.302 81.5334 158.269 81.6834 158.202 81.85L151.052 105.05C150.952 105.417 150.769 105.717 150.502 105.95C150.269 106.183 149.919 106.3 149.452 106.3H146.202C145.735 106.3 145.369 106.183 145.102 105.95C144.835 105.717 144.652 105.417 144.552 105.05L139.352 89.25L134.152 105.05C134.019 105.417 133.819 105.717 133.552 105.95C133.319 106.183 132.952 106.3 132.452 106.3H129.252ZM164.368 106.3C164.034 106.3 163.751 106.183 163.518 105.95C163.284 105.717 163.168 105.433 163.168 105.1V81.5C163.168 81.1667 163.284 80.8834 163.518 80.65C163.751 80.4167 164.034 80.3 164.368 80.3H168.518C168.884 80.3 169.168 80.4167 169.368 80.65C169.601 80.8834 169.718 81.1667 169.718 81.5V105.1C169.718 105.433 169.601 105.717 169.368 105.95C169.168 106.183 168.884 106.3 168.518 106.3H164.368ZM164.168 76C163.801 76 163.501 75.9 163.268 75.7C163.068 75.4667 162.968 75.1667 162.968 74.8V71.2C162.968 70.8667 163.068 70.5834 163.268 70.35C163.501 70.1167 163.801 70 164.168 70H168.718C169.084 70 169.384 70.1167 169.618 70.35C169.851 70.5834 169.968 70.8667 169.968 71.2V74.8C169.968 75.1667 169.851 75.4667 169.618 75.7C169.384 75.9 169.084 76 168.718 76H164.168ZM188.101 106.3C186.101 106.3 184.418 105.95 183.051 105.25C181.684 104.55 180.668 103.517 180.001 102.15C179.334 100.75 179.001 99.0167 179.001 96.95V85.6H175.051C174.718 85.6 174.434 85.4834 174.201 85.25C173.968 85.0167 173.851 84.7334 173.851 84.4V81.5C173.851 81.1667 173.968 80.8834 174.201 80.65C174.434 80.4167 174.718 80.3 175.051 80.3H179.001V72C179.001 71.6667 179.101 71.3834 179.301 71.15C179.534 70.9167 179.834 70.8 180.201 70.8H184.251C184.584 70.8 184.868 70.9167 185.101 71.15C185.334 71.3834 185.451 71.6667 185.451 72V80.3H191.701C192.034 80.3 192.318 80.4167 192.551 80.65C192.784 80.8834 192.901 81.1667 192.901 81.5V84.4C192.901 84.7334 192.784 85.0167 192.551 85.25C192.318 85.4834 192.034 85.6 191.701 85.6H185.451V96.45C185.451 97.8167 185.684 98.8834 186.151 99.65C186.651 100.417 187.501 100.8 188.701 100.8H192.151C192.484 100.8 192.768 100.917 193.001 101.15C193.234 101.383 193.351 101.667 193.351 102V105.1C193.351 105.433 193.234 105.717 193.001 105.95C192.768 106.183 192.484 106.3 192.151 106.3H188.101ZM199.037 106.3C198.703 106.3 198.42 106.183 198.187 105.95C197.953 105.717 197.837 105.433 197.837 105.1V72C197.837 71.6667 197.953 71.3834 198.187 71.15C198.42 70.9167 198.703 70.8 199.037 70.8H203.487C203.853 70.8 204.137 70.9167 204.337 71.15C204.57 71.3834 204.687 71.6667 204.687 72V83.4C205.587 82.3334 206.687 81.4667 207.987 80.8C209.287 80.1334 210.887 79.8 212.787 79.8C214.82 79.8 216.587 80.2667 218.087 81.2C219.62 82.1 220.803 83.3834 221.637 85.05C222.47 86.7167 222.887 88.7167 222.887 91.05V105.1C222.887 105.433 222.77 105.717 222.537 105.95C222.303 106.183 222.02 106.3 221.687 106.3H217.187C216.853 106.3 216.57 106.183 216.337 105.95C216.103 105.717 215.987 105.433 215.987 105.1V91.35C215.987 89.4167 215.503 87.9 214.537 86.8C213.603 85.7 212.237 85.15 210.437 85.15C208.703 85.15 207.303 85.7 206.237 86.8C205.203 87.9 204.687 89.4167 204.687 91.35V105.1C204.687 105.433 204.57 105.717 204.337 105.95C204.137 106.183 203.853 106.3 203.487 106.3H199.037ZM241.327 106.3C240.96 106.3 240.66 106.183 240.427 105.95C240.193 105.717 240.077 105.417 240.077 105.05V72.55C240.077 72.1834 240.193 71.8834 240.427 71.65C240.66 71.4167 240.96 71.3 241.327 71.3H247.927C248.26 71.3 248.543 71.4167 248.777 71.65C249.043 71.8834 249.177 72.1834 249.177 72.55V98.75H264.277C264.643 98.75 264.943 98.8834 265.177 99.15C265.443 99.3834 265.577 99.6834 265.577 100.05V105.05C265.577 105.417 265.443 105.717 265.177 105.95C264.943 106.183 264.643 106.3 264.277 106.3H241.327ZM277.161 106.8C275.361 106.8 273.744 106.467 272.311 105.8C270.911 105.1 269.794 104.167 268.961 103C268.127 101.833 267.711 100.517 267.711 99.05C267.711 96.6834 268.677 94.8167 270.611 93.45C272.544 92.05 275.111 91.1 278.311 90.6L284.561 89.65V88.95C284.561 87.75 284.311 86.8334 283.811 86.2C283.311 85.5667 282.394 85.25 281.061 85.25C280.127 85.25 279.361 85.4334 278.761 85.8C278.194 86.1667 277.744 86.6667 277.411 87.3C277.111 87.7334 276.694 87.95 276.161 87.95H270.561C270.194 87.95 269.911 87.85 269.711 87.65C269.511 87.4167 269.427 87.15 269.461 86.85C269.461 86.25 269.677 85.5667 270.111 84.8C270.577 84 271.277 83.2167 272.211 82.45C273.144 81.6834 274.344 81.05 275.811 80.55C277.277 80.05 279.044 79.8 281.111 79.8C283.277 79.8 285.127 80.05 286.661 80.55C288.194 81.05 289.427 81.75 290.361 82.65C291.327 83.55 292.044 84.6167 292.511 85.85C292.977 87.05 293.211 88.3834 293.211 89.85V105.05C293.211 105.417 293.077 105.717 292.811 105.95C292.577 106.183 292.294 106.3 291.961 106.3H286.161C285.794 106.3 285.494 106.183 285.261 105.95C285.027 105.717 284.911 105.417 284.911 105.05V103.3C284.477 103.933 283.894 104.517 283.161 105.05C282.427 105.583 281.561 106 280.561 106.3C279.594 106.633 278.461 106.8 277.161 106.8ZM279.511 101.1C280.477 101.1 281.344 100.9 282.111 100.5C282.911 100.067 283.527 99.4167 283.961 98.55C284.427 97.65 284.661 96.5334 284.661 95.2V94.5L280.411 95.25C278.844 95.5167 277.694 95.9334 276.961 96.5C276.261 97.0334 275.911 97.6667 275.911 98.4C275.911 98.9667 276.077 99.45 276.411 99.85C276.744 100.25 277.177 100.567 277.711 100.8C278.244 101 278.844 101.1 279.511 101.1ZM309.553 106.8C307.386 106.8 305.536 106.567 304.003 106.1C302.503 105.6 301.269 105 300.303 104.3C299.369 103.6 298.669 102.883 298.203 102.15C297.736 101.383 297.486 100.733 297.453 100.2C297.419 99.8334 297.536 99.5334 297.803 99.3C298.069 99.0334 298.353 98.9 298.653 98.9H304.353C304.453 98.9 304.536 98.9167 304.603 98.95C304.669 98.9834 304.769 99.05 304.903 99.15C305.336 99.3834 305.769 99.6834 306.203 100.05C306.636 100.383 307.136 100.683 307.703 100.95C308.269 101.217 308.953 101.35 309.753 101.35C310.686 101.35 311.469 101.167 312.103 100.8C312.736 100.433 313.053 99.8834 313.053 99.15C313.053 98.6167 312.903 98.1834 312.603 97.85C312.303 97.4834 311.686 97.1334 310.753 96.8C309.853 96.4667 308.486 96.1334 306.653 95.8C304.919 95.4 303.403 94.8834 302.103 94.25C300.803 93.5834 299.803 92.7334 299.103 91.7C298.403 90.6334 298.053 89.35 298.053 87.85C298.053 86.5167 298.486 85.2334 299.353 84C300.219 82.7667 301.486 81.7667 303.153 81C304.819 80.2 306.869 79.8 309.303 79.8C311.236 79.8 312.903 80.0334 314.303 80.5C315.736 80.9334 316.936 81.5 317.903 82.2C318.903 82.9 319.653 83.6167 320.153 84.35C320.653 85.0834 320.919 85.75 320.953 86.35C320.986 86.6834 320.886 86.9834 320.653 87.25C320.419 87.4834 320.153 87.6 319.853 87.6H314.653C314.519 87.6 314.386 87.5834 314.253 87.55C314.119 87.4834 314.003 87.4167 313.903 87.35C313.503 87.15 313.103 86.8834 312.703 86.55C312.303 86.2167 311.836 85.9167 311.303 85.65C310.769 85.3834 310.103 85.25 309.303 85.25C308.403 85.25 307.703 85.45 307.203 85.85C306.703 86.25 306.453 86.7667 306.453 87.4C306.453 87.8334 306.586 88.2334 306.853 88.6C307.153 88.9667 307.736 89.3 308.603 89.6C309.503 89.9 310.886 90.2334 312.753 90.6C315.053 90.9667 316.886 91.5667 318.253 92.4C319.619 93.2 320.586 94.15 321.153 95.25C321.719 96.3167 322.003 97.45 322.003 98.65C322.003 100.25 321.519 101.667 320.553 102.9C319.619 104.133 318.219 105.1 316.353 105.8C314.486 106.467 312.219 106.8 309.553 106.8ZM327.739 106.3C327.373 106.3 327.073 106.183 326.839 105.95C326.606 105.717 326.489 105.417 326.489 105.05V72.05C326.489 71.6834 326.606 71.3834 326.839 71.15C327.073 70.9167 327.373 70.8 327.739 70.8H333.639C334.006 70.8 334.306 70.9167 334.539 71.15C334.773 71.3834 334.889 71.6834 334.889 72.05V105.05C334.889 105.417 334.773 105.717 334.539 105.95C334.306 106.183 334.006 106.3 333.639 106.3H327.739ZM352.796 106.8C348.863 106.8 345.729 105.733 343.396 103.6C341.063 101.467 339.846 98.3 339.746 94.1C339.746 93.8667 339.746 93.5667 339.746 93.2C339.746 92.8334 339.746 92.55 339.746 92.35C339.846 89.7167 340.429 87.4667 341.496 85.6C342.596 83.7 344.096 82.2667 345.996 81.3C347.929 80.3 350.179 79.8 352.746 79.8C355.679 79.8 358.096 80.3834 359.996 81.55C361.929 82.7167 363.379 84.3 364.346 86.3C365.313 88.3 365.796 90.5834 365.796 93.15V94.35C365.796 94.7167 365.663 95.0167 365.396 95.25C365.163 95.4834 364.879 95.6 364.546 95.6H348.546C348.546 95.6334 348.546 95.6834 348.546 95.75C348.546 95.8167 348.546 95.8834 348.546 95.95C348.579 96.9167 348.746 97.8 349.046 98.6C349.346 99.4 349.813 100.033 350.446 100.5C351.079 100.967 351.846 101.2 352.746 101.2C353.413 101.2 353.963 101.1 354.396 100.9C354.863 100.667 355.246 100.417 355.546 100.15C355.846 99.85 356.079 99.6 356.246 99.4C356.546 99.0667 356.779 98.8667 356.946 98.8C357.146 98.7 357.446 98.65 357.846 98.65H364.046C364.379 98.65 364.646 98.75 364.846 98.95C365.079 99.1167 365.179 99.3667 365.146 99.7C365.113 100.267 364.829 100.95 364.296 101.75C363.763 102.55 362.979 103.35 361.946 104.15C360.946 104.917 359.679 105.55 358.146 106.05C356.613 106.55 354.829 106.8 352.796 106.8ZM348.546 90.65H356.996V90.55C356.996 89.4834 356.829 88.55 356.496 87.75C356.196 86.95 355.713 86.3334 355.046 85.9C354.413 85.4667 353.646 85.25 352.746 85.25C351.846 85.25 351.079 85.4667 350.446 85.9C349.846 86.3334 349.379 86.95 349.046 87.75C348.713 88.55 348.546 89.4834 348.546 90.55V90.65ZM381.184 106.8C379.017 106.8 377.167 106.567 375.634 106.1C374.134 105.6 372.9 105 371.934 104.3C371 103.6 370.3 102.883 369.834 102.15C369.367 101.383 369.117 100.733 369.084 100.2C369.05 99.8334 369.167 99.5334 369.434 99.3C369.7 99.0334 369.984 98.9 370.284 98.9H375.984C376.084 98.9 376.167 98.9167 376.234 98.95C376.3 98.9834 376.4 99.05 376.534 99.15C376.967 99.3834 377.4 99.6834 377.834 100.05C378.267 100.383 378.767 100.683 379.334 100.95C379.9 101.217 380.584 101.35 381.384 101.35C382.317 101.35 383.1 101.167 383.734 100.8C384.367 100.433 384.684 99.8834 384.684 99.15C384.684 98.6167 384.534 98.1834 384.234 97.85C383.934 97.4834 383.317 97.1334 382.384 96.8C381.484 96.4667 380.117 96.1334 378.284 95.8C376.55 95.4 375.034 94.8834 373.734 94.25C372.434 93.5834 371.434 92.7334 370.734 91.7C370.034 90.6334 369.684 89.35 369.684 87.85C369.684 86.5167 370.117 85.2334 370.984 84C371.85 82.7667 373.117 81.7667 374.784 81C376.45 80.2 378.5 79.8 380.934 79.8C382.867 79.8 384.534 80.0334 385.934 80.5C387.367 80.9334 388.567 81.5 389.534 82.2C390.534 82.9 391.284 83.6167 391.784 84.35C392.284 85.0834 392.55 85.75 392.584 86.35C392.617 86.6834 392.517 86.9834 392.284 87.25C392.05 87.4834 391.784 87.6 391.484 87.6H386.284C386.15 87.6 386.017 87.5834 385.884 87.55C385.75 87.4834 385.634 87.4167 385.534 87.35C385.134 87.15 384.734 86.8834 384.334 86.55C383.934 86.2167 383.467 85.9167 382.934 85.65C382.4 85.3834 381.734 85.25 380.934 85.25C380.034 85.25 379.334 85.45 378.834 85.85C378.334 86.25 378.084 86.7667 378.084 87.4C378.084 87.8334 378.217 88.2334 378.484 88.6C378.784 88.9667 379.367 89.3 380.234 89.6C381.134 89.9 382.517 90.2334 384.384 90.6C386.684 90.9667 388.517 91.5667 389.884 92.4C391.25 93.2 392.217 94.15 392.784 95.25C393.35 96.3167 393.634 97.45 393.634 98.65C393.634 100.25 393.15 101.667 392.184 102.9C391.25 104.133 389.85 105.1 387.984 105.8C386.117 106.467 383.85 106.8 381.184 106.8ZM405.985 106.3C405.418 106.3 404.968 106.15 404.635 105.85C404.301 105.55 404.068 105.2 403.935 104.8L393.735 72.8C393.668 72.6334 393.635 72.4834 393.635 72.35C393.635 72.0834 393.735 71.85 393.935 71.65C394.168 71.4167 394.435 71.3 394.735 71.3H400.935C401.468 71.3 401.885 71.45 402.185 71.75C402.485 72.05 402.668 72.3334 402.735 72.6L409.785 95.7L416.885 72.6C416.985 72.3334 417.168 72.05 417.435 71.75C417.735 71.45 418.151 71.3 418.685 71.3H424.885C425.185 71.3 425.435 71.4167 425.635 71.65C425.868 71.85 425.985 72.0834 425.985 72.35C425.985 72.4834 425.951 72.6334 425.885 72.8L415.685 104.8C415.551 105.2 415.318 105.55 414.985 105.85C414.685 106.15 414.235 106.3 413.635 106.3H405.985ZM431.903 106.3C431.536 106.3 431.236 106.183 431.003 105.95C430.769 105.717 430.653 105.417 430.653 105.05V72.55C430.653 72.1834 430.769 71.8834 431.003 71.65C431.236 71.4167 431.536 71.3 431.903 71.3H445.903C448.669 71.3 451.069 71.7334 453.103 72.6C455.169 73.4334 456.769 74.7 457.903 76.4C459.069 78.1 459.653 80.25 459.653 82.85C459.653 85.4167 459.069 87.5334 457.903 89.2C456.769 90.8667 455.169 92.1 453.103 92.9C451.069 93.7 448.669 94.1 445.903 94.1H439.953V105.05C439.953 105.417 439.819 105.717 439.553 105.95C439.319 106.183 439.019 106.3 438.653 106.3H431.903ZM439.803 87.2H445.653C447.086 87.2 448.219 86.8334 449.053 86.1C449.919 85.3667 450.353 84.25 450.353 82.75C450.353 81.4834 449.986 80.4167 449.253 79.55C448.519 78.6834 447.319 78.25 445.653 78.25H439.803V87.2ZM465.692 106.3C465.325 106.3 465.025 106.183 464.792 105.95C464.558 105.717 464.442 105.417 464.442 105.05V72.55C464.442 72.1834 464.558 71.8834 464.792 71.65C465.025 71.4167 465.325 71.3 465.692 71.3H470.992C471.558 71.3 471.958 71.4334 472.192 71.7C472.458 71.9334 472.625 72.1167 472.692 72.25L484.892 91.5V72.55C484.892 72.1834 485.008 71.8834 485.242 71.65C485.475 71.4167 485.775 71.3 486.142 71.3H492.142C492.508 71.3 492.808 71.4167 493.042 71.65C493.275 71.8834 493.392 72.1834 493.392 72.55V105.05C493.392 105.383 493.275 105.683 493.042 105.95C492.808 106.183 492.508 106.3 492.142 106.3H486.792C486.258 106.3 485.858 106.167 485.592 105.9C485.358 105.633 485.208 105.45 485.142 105.35L472.942 86.85V105.05C472.942 105.417 472.825 105.717 472.592 105.95C472.358 106.183 472.058 106.3 471.692 106.3H465.692ZM500.683 106.3C500.316 106.3 500.016 106.183 499.783 105.95C499.549 105.717 499.433 105.417 499.433 105.05V98.7C499.433 98.3667 499.549 98.0834 499.783 97.85C500.016 97.5834 500.316 97.45 500.683 97.45H506.983C507.349 97.45 507.649 97.5834 507.883 97.85C508.149 98.0834 508.283 98.3667 508.283 98.7V105.05C508.283 105.417 508.149 105.717 507.883 105.95C507.649 106.183 507.349 106.3 506.983 106.3H500.683Z" fill="#0B132A"/>
</svg>
