<svg width="363" height="76" viewBox="0 0 363 76" fill="none" xmlns="http://www.w3.org/2000/svg">
<path d="M5.42501 25.41C5.07501 25.41 4.79501 25.3167 4.58501 25.13C4.39835 24.92 4.27001 24.6634 4.20001 24.36L0.0350135 1.92503C0.0350135 1.85503 0.0233468 1.7967 1.35154e-05 1.75003C1.35154e-05 1.70337 1.35154e-05 1.66837 1.35154e-05 1.64503C1.35154e-05 1.43503 0.0700135 1.26003 0.210014 1.12003C0.373347 0.980033 0.548347 0.910033 0.735014 0.910033H3.81501C4.39835 0.910033 4.72501 1.14337 4.79501 1.61003L7.70001 17.465L10.85 7.21003C10.92 7.02337 11.0367 6.8367 11.2 6.65003C11.3867 6.44003 11.655 6.33503 12.005 6.33503H13.895C14.2683 6.33503 14.5367 6.44003 14.7 6.65003C14.8633 6.8367 14.9683 7.02337 15.015 7.21003L18.2 17.43L21.105 1.61003C21.175 1.14337 21.5017 0.910033 22.085 0.910033H25.165C25.3517 0.910033 25.515 0.980033 25.655 1.12003C25.795 1.26003 25.865 1.43503 25.865 1.64503C25.865 1.66837 25.865 1.70337 25.865 1.75003C25.865 1.7967 25.8533 1.85503 25.83 1.92503L21.665 24.36C21.6183 24.6634 21.49 24.92 21.28 25.13C21.07 25.3167 20.79 25.41 20.44 25.41H18.095C17.745 25.41 17.465 25.3167 17.255 25.13C17.0683 24.9434 16.94 24.745 16.87 24.535L12.95 12.845L9.03001 24.535C8.93668 24.745 8.79668 24.9434 8.61001 25.13C8.42335 25.3167 8.14335 25.41 7.77001 25.41H5.42501ZM36.6765 25.76C34.0865 25.76 32.0331 25.0134 30.5165 23.52C28.9998 22.0267 28.1831 19.9034 28.0665 17.15C28.0431 16.9167 28.0315 16.625 28.0315 16.275C28.0315 15.9017 28.0431 15.61 28.0665 15.4C28.1598 13.65 28.5565 12.1334 29.2565 10.85C29.9798 9.5667 30.9715 8.5867 32.2315 7.91003C33.4915 7.21003 34.9731 6.86003 36.6765 6.86003C38.5665 6.86003 40.1531 7.2567 41.4365 8.05003C42.7198 8.82003 43.6881 9.90503 44.3415 11.305C44.9948 12.6817 45.3215 14.28 45.3215 16.1V16.835C45.3215 17.0684 45.2398 17.2667 45.0765 17.43C44.9131 17.5934 44.7031 17.675 44.4465 17.675H32.8265C32.8265 17.675 32.8265 17.71 32.8265 17.78C32.8265 17.85 32.8265 17.9084 32.8265 17.955C32.8498 18.7717 33.0015 19.53 33.2815 20.23C33.5848 20.9067 34.0165 21.455 34.5765 21.875C35.1598 22.295 35.8481 22.505 36.6415 22.505C37.2948 22.505 37.8431 22.4117 38.2865 22.225C38.7298 22.015 39.0915 21.7817 39.3715 21.525C39.6515 21.2684 39.8498 21.0584 39.9665 20.895C40.1765 20.615 40.3398 20.4517 40.4565 20.405C40.5965 20.335 40.7948 20.3 41.0515 20.3H44.0615C44.2948 20.3 44.4815 20.37 44.6215 20.51C44.7848 20.65 44.8548 20.825 44.8315 21.035C44.8081 21.4084 44.6098 21.8634 44.2365 22.4C43.8865 22.9367 43.3731 23.4617 42.6965 23.975C42.0198 24.4884 41.1681 24.92 40.1415 25.27C39.1381 25.5967 37.9831 25.76 36.6765 25.76ZM32.8265 14.735H40.5615V14.63C40.5615 13.72 40.4098 12.9267 40.1065 12.25C39.8031 11.5734 39.3598 11.0367 38.7765 10.64C38.1931 10.2434 37.4931 10.045 36.6765 10.045C35.8598 10.045 35.1598 10.2434 34.5765 10.64C33.9931 11.0367 33.5498 11.5734 33.2465 12.25C32.9665 12.9267 32.8265 13.72 32.8265 14.63V14.735ZM58.2947 25.41C58.0614 25.41 57.863 25.3284 57.6997 25.165C57.5364 25.0017 57.4547 24.8034 57.4547 24.57V1.78503C57.4547 1.52837 57.5364 1.31837 57.6997 1.15503C57.863 0.9917 58.0614 0.910033 58.2947 0.910033H67.6747C69.4947 0.910033 71.0814 1.2017 72.4347 1.78503C73.788 2.34503 74.838 3.20837 75.5847 4.37503C76.3314 5.51837 76.7047 6.95337 76.7047 8.68003C76.7047 10.43 76.3314 11.8767 75.5847 13.02C74.838 14.14 73.788 14.98 72.4347 15.54C71.0814 16.1 69.4947 16.38 67.6747 16.38H62.4597V24.57C62.4597 24.8034 62.378 25.0017 62.2147 25.165C62.0747 25.3284 61.8764 25.41 61.6197 25.41H58.2947ZM62.3897 12.495H67.4997C68.853 12.495 69.8914 12.18 70.6147 11.55C71.338 10.8967 71.6997 9.94003 71.6997 8.68003C71.6997 7.51337 71.3614 6.58003 70.6847 5.88003C70.008 5.1567 68.9464 4.79503 67.4997 4.79503H62.3897V12.495ZM80.946 25.41C80.7127 25.41 80.5143 25.3284 80.351 25.165C80.1877 25.0017 80.106 24.8034 80.106 24.57V8.08503C80.106 7.82837 80.1877 7.61837 80.351 7.45503C80.5143 7.2917 80.7127 7.21003 80.946 7.21003H83.781C84.0143 7.21003 84.2127 7.2917 84.376 7.45503C84.5627 7.61837 84.656 7.82837 84.656 8.08503V9.52003C85.1927 8.77337 85.881 8.2017 86.721 7.80503C87.5843 7.40837 88.576 7.21003 89.696 7.21003H91.131C91.3877 7.21003 91.586 7.2917 91.726 7.45503C91.8893 7.61837 91.971 7.8167 91.971 8.05003V10.57C91.971 10.8034 91.8893 11.0017 91.726 11.165C91.586 11.3284 91.3877 11.41 91.131 11.41H88.401C87.281 11.41 86.406 11.725 85.776 12.355C85.1693 12.985 84.866 13.8484 84.866 14.945V24.57C84.866 24.8034 84.7843 25.0017 84.621 25.165C84.4577 25.3284 84.2477 25.41 83.991 25.41H80.946ZM102.511 25.76C100.645 25.76 99.0698 25.4334 97.7865 24.78C96.5265 24.1267 95.5581 23.205 94.8815 22.015C94.2281 20.825 93.8548 19.4367 93.7615 17.85C93.7381 17.43 93.7265 16.9167 93.7265 16.31C93.7265 15.7034 93.7381 15.19 93.7615 14.77C93.8548 13.16 94.2398 11.7717 94.9165 10.605C95.6165 9.41503 96.5965 8.49337 97.8565 7.84003C99.1398 7.1867 100.691 6.86003 102.511 6.86003C104.331 6.86003 105.871 7.1867 107.131 7.84003C108.415 8.49337 109.395 9.41503 110.071 10.605C110.771 11.7717 111.168 13.16 111.261 14.77C111.285 15.19 111.296 15.7034 111.296 16.31C111.296 16.9167 111.285 17.43 111.261 17.85C111.168 19.4367 110.783 20.825 110.106 22.015C109.453 23.205 108.485 24.1267 107.201 24.78C105.941 25.4334 104.378 25.76 102.511 25.76ZM102.511 22.295C103.748 22.295 104.705 21.91 105.381 21.14C106.058 20.3467 106.431 19.1917 106.501 17.675C106.525 17.325 106.536 16.87 106.536 16.31C106.536 15.75 106.525 15.295 106.501 14.945C106.431 13.4517 106.058 12.3084 105.381 11.515C104.705 10.7217 103.748 10.325 102.511 10.325C101.275 10.325 100.318 10.7217 99.6415 11.515C98.9648 12.3084 98.5915 13.4517 98.5215 14.945C98.4981 15.295 98.4865 15.75 98.4865 16.31C98.4865 16.87 98.4981 17.325 98.5215 17.675C98.5915 19.1917 98.9648 20.3467 99.6415 21.14C100.318 21.91 101.275 22.295 102.511 22.295ZM120.965 25.41C120.592 25.41 120.312 25.3284 120.125 25.165C119.962 24.9784 119.822 24.7684 119.705 24.535L113.16 8.29503C113.113 8.17837 113.09 8.07337 113.09 7.98003C113.09 7.77003 113.16 7.59503 113.3 7.45503C113.463 7.2917 113.65 7.21003 113.86 7.21003H116.695C116.975 7.21003 117.185 7.2917 117.325 7.45503C117.465 7.59503 117.558 7.73503 117.605 7.87503L122.26 20.16L126.915 7.87503C126.962 7.73503 127.055 7.59503 127.195 7.45503C127.335 7.2917 127.545 7.21003 127.825 7.21003H130.695C130.882 7.21003 131.045 7.2917 131.185 7.45503C131.348 7.59503 131.43 7.77003 131.43 7.98003C131.43 8.07337 131.418 8.17837 131.395 8.29503L124.815 24.535C124.722 24.7684 124.582 24.9784 124.395 25.165C124.208 25.3284 123.928 25.41 123.555 25.41H120.965ZM135.463 25.41C135.229 25.41 135.031 25.3284 134.868 25.165C134.704 25.0017 134.623 24.8034 134.623 24.57V8.05003C134.623 7.8167 134.704 7.61837 134.868 7.45503C135.031 7.2917 135.229 7.21003 135.463 7.21003H138.368C138.624 7.21003 138.823 7.2917 138.963 7.45503C139.126 7.61837 139.208 7.8167 139.208 8.05003V24.57C139.208 24.8034 139.126 25.0017 138.963 25.165C138.823 25.3284 138.624 25.41 138.368 25.41H135.463ZM135.323 4.20003C135.066 4.20003 134.856 4.13003 134.693 3.99003C134.553 3.8267 134.483 3.6167 134.483 3.36003V0.840033C134.483 0.6067 134.553 0.408367 134.693 0.245033C134.856 0.0817001 135.066 3.37958e-05 135.323 3.37958e-05H138.508C138.764 3.37958e-05 138.974 0.0817001 139.138 0.245033C139.301 0.408367 139.383 0.6067 139.383 0.840033V3.36003C139.383 3.6167 139.301 3.8267 139.138 3.99003C138.974 4.13003 138.764 4.20003 138.508 4.20003H135.323ZM150.606 25.76C149.393 25.76 148.319 25.5617 147.386 25.165C146.476 24.745 145.718 24.1617 145.111 23.415C144.504 22.6684 144.038 21.7934 143.711 20.79C143.384 19.7634 143.198 18.6434 143.151 17.43C143.128 17.01 143.116 16.6367 143.116 16.31C143.116 15.96 143.128 15.575 143.151 15.155C143.198 13.9884 143.373 12.9034 143.676 11.9C144.003 10.8967 144.469 10.0217 145.076 9.27503C145.706 8.50503 146.476 7.91003 147.386 7.49003C148.319 7.07003 149.393 6.86003 150.606 6.86003C151.866 6.86003 152.928 7.0817 153.791 7.52503C154.678 7.94503 155.413 8.49337 155.996 9.17003V1.40003C155.996 1.1667 156.066 0.968366 156.206 0.805034C156.369 0.6417 156.579 0.560033 156.836 0.560033H159.811C160.044 0.560033 160.243 0.6417 160.406 0.805034C160.569 0.968366 160.651 1.1667 160.651 1.40003V24.57C160.651 24.8034 160.569 25.0017 160.406 25.165C160.243 25.3284 160.044 25.41 159.811 25.41H157.046C156.789 25.41 156.579 25.3284 156.416 25.165C156.276 25.0017 156.206 24.8034 156.206 24.57V23.275C155.623 23.9984 154.876 24.5934 153.966 25.06C153.079 25.5267 151.959 25.76 150.606 25.76ZM151.901 22.015C152.881 22.015 153.663 21.7934 154.246 21.35C154.829 20.9067 155.261 20.3467 155.541 19.67C155.821 18.97 155.973 18.2584 155.996 17.535C156.019 17.115 156.031 16.6717 156.031 16.205C156.031 15.715 156.019 15.26 155.996 14.84C155.973 14.14 155.809 13.475 155.506 12.845C155.203 12.1917 154.759 11.655 154.176 11.235C153.593 10.815 152.834 10.605 151.901 10.605C150.921 10.605 150.139 10.8267 149.556 11.27C148.996 11.69 148.588 12.25 148.331 12.95C148.074 13.65 147.923 14.42 147.876 15.26C147.853 15.96 147.853 16.66 147.876 17.36C147.923 18.2 148.074 18.97 148.331 19.67C148.588 20.37 148.996 20.9417 149.556 21.385C150.139 21.805 150.921 22.015 151.901 22.015ZM173.156 25.76C170.566 25.76 168.513 25.0134 166.996 23.52C165.479 22.0267 164.663 19.9034 164.546 17.15C164.523 16.9167 164.511 16.625 164.511 16.275C164.511 15.9017 164.523 15.61 164.546 15.4C164.639 13.65 165.036 12.1334 165.736 10.85C166.459 9.5667 167.451 8.5867 168.711 7.91003C169.971 7.21003 171.453 6.86003 173.156 6.86003C175.046 6.86003 176.633 7.2567 177.916 8.05003C179.199 8.82003 180.168 9.90503 180.821 11.305C181.474 12.6817 181.801 14.28 181.801 16.1V16.835C181.801 17.0684 181.719 17.2667 181.556 17.43C181.393 17.5934 181.183 17.675 180.926 17.675H169.306C169.306 17.675 169.306 17.71 169.306 17.78C169.306 17.85 169.306 17.9084 169.306 17.955C169.329 18.7717 169.481 19.53 169.761 20.23C170.064 20.9067 170.496 21.455 171.056 21.875C171.639 22.295 172.328 22.505 173.121 22.505C173.774 22.505 174.323 22.4117 174.766 22.225C175.209 22.015 175.571 21.7817 175.851 21.525C176.131 21.2684 176.329 21.0584 176.446 20.895C176.656 20.615 176.819 20.4517 176.936 20.405C177.076 20.335 177.274 20.3 177.531 20.3H180.541C180.774 20.3 180.961 20.37 181.101 20.51C181.264 20.65 181.334 20.825 181.311 21.035C181.288 21.4084 181.089 21.8634 180.716 22.4C180.366 22.9367 179.853 23.4617 179.176 23.975C178.499 24.4884 177.648 24.92 176.621 25.27C175.618 25.5967 174.463 25.76 173.156 25.76ZM169.306 14.735H177.041V14.63C177.041 13.72 176.889 12.9267 176.586 12.25C176.283 11.5734 175.839 11.0367 175.256 10.64C174.673 10.2434 173.973 10.045 173.156 10.045C172.339 10.045 171.639 10.2434 171.056 10.64C170.473 11.0367 170.029 11.5734 169.726 12.25C169.446 12.9267 169.306 13.72 169.306 14.63V14.735ZM194.809 25.41C194.553 25.41 194.343 25.3284 194.179 25.165C194.016 25.0017 193.934 24.8034 193.934 24.57V1.78503C193.934 1.52837 194.016 1.31837 194.179 1.15503C194.343 0.9917 194.553 0.910033 194.809 0.910033H197.574C197.901 0.910033 198.146 1.00337 198.309 1.19003C198.473 1.35337 198.578 1.4817 198.624 1.57503L205.379 14.175L212.204 1.57503C212.251 1.4817 212.356 1.35337 212.519 1.19003C212.683 1.00337 212.928 0.910033 213.254 0.910033H215.984C216.241 0.910033 216.451 0.9917 216.614 1.15503C216.778 1.31837 216.859 1.52837 216.859 1.78503V24.57C216.859 24.8034 216.778 25.0017 216.614 25.165C216.451 25.3284 216.241 25.41 215.984 25.41H213.044C212.788 25.41 212.578 25.3284 212.414 25.165C212.274 25.0017 212.204 24.8034 212.204 24.57V9.41503L207.304 18.76C207.188 18.97 207.036 19.1567 206.849 19.32C206.663 19.46 206.418 19.53 206.114 19.53H204.679C204.353 19.53 204.096 19.46 203.909 19.32C203.746 19.1567 203.606 18.97 203.489 18.76L198.589 9.41503V24.57C198.589 24.8034 198.508 25.0017 198.344 25.165C198.181 25.3284 197.983 25.41 197.749 25.41H194.809ZM227.168 25.76C225.955 25.76 224.858 25.5267 223.878 25.06C222.898 24.57 222.117 23.9284 221.533 23.135C220.973 22.3184 220.693 21.4084 220.693 20.405C220.693 18.7717 221.347 17.4767 222.653 16.52C223.983 15.54 225.733 14.8867 227.903 14.56L232.698 13.86V13.125C232.698 12.145 232.453 11.3867 231.963 10.85C231.473 10.3134 230.633 10.045 229.443 10.045C228.603 10.045 227.915 10.22 227.378 10.57C226.865 10.8967 226.48 11.34 226.223 11.9C226.037 12.2034 225.768 12.355 225.418 12.355H222.653C222.397 12.355 222.198 12.285 222.058 12.145C221.942 12.005 221.883 11.8184 221.883 11.585C221.907 11.2117 222.058 10.7567 222.338 10.22C222.618 9.68337 223.062 9.17003 223.668 8.68003C224.275 8.1667 225.057 7.73503 226.013 7.38503C226.97 7.03503 228.125 6.86003 229.478 6.86003C230.948 6.86003 232.185 7.0467 233.188 7.42003C234.215 7.77003 235.032 8.24837 235.638 8.85503C236.245 9.4617 236.688 10.1734 236.968 10.99C237.248 11.8067 237.388 12.67 237.388 13.58V24.57C237.388 24.8034 237.307 25.0017 237.143 25.165C236.98 25.3284 236.782 25.41 236.548 25.41H233.713C233.457 25.41 233.247 25.3284 233.083 25.165C232.943 25.0017 232.873 24.8034 232.873 24.57V23.205C232.57 23.6484 232.162 24.0684 231.648 24.465C231.135 24.8384 230.505 25.1534 229.758 25.41C229.035 25.6434 228.172 25.76 227.168 25.76ZM228.358 22.435C229.175 22.435 229.91 22.26 230.563 21.91C231.24 21.56 231.765 21.0234 232.138 20.3C232.535 19.5534 232.733 18.62 232.733 17.5V16.765L229.233 17.325C227.857 17.535 226.83 17.8734 226.153 18.34C225.477 18.8067 225.138 19.3784 225.138 20.055C225.138 20.5684 225.29 21.0117 225.593 21.385C225.92 21.735 226.328 22.0034 226.818 22.19C227.308 22.3534 227.822 22.435 228.358 22.435ZM242.718 25.41C242.485 25.41 242.287 25.3284 242.123 25.165C241.96 25.0017 241.878 24.8034 241.878 24.57V8.05003C241.878 7.8167 241.96 7.61837 242.123 7.45503C242.287 7.2917 242.485 7.21003 242.718 7.21003H245.588C245.822 7.21003 246.02 7.2917 246.183 7.45503C246.347 7.61837 246.428 7.8167 246.428 8.05003V9.48503C247.035 8.73837 247.805 8.12003 248.738 7.63003C249.695 7.1167 250.873 6.86003 252.273 6.86003C253.697 6.86003 254.933 7.1867 255.983 7.84003C257.033 8.47003 257.838 9.36837 258.398 10.535C258.982 11.7017 259.273 13.1017 259.273 14.735V24.57C259.273 24.8034 259.192 25.0017 259.028 25.165C258.865 25.3284 258.667 25.41 258.433 25.41H255.353C255.12 25.41 254.922 25.3284 254.758 25.165C254.595 25.0017 254.513 24.8034 254.513 24.57V14.945C254.513 13.5917 254.175 12.53 253.498 11.76C252.845 10.99 251.888 10.605 250.628 10.605C249.415 10.605 248.447 10.99 247.723 11.76C247 12.53 246.638 13.5917 246.638 14.945V24.57C246.638 24.8034 246.557 25.0017 246.393 25.165C246.23 25.3284 246.032 25.41 245.798 25.41H242.718ZM266.428 32.06C266.242 32.06 266.078 31.99 265.938 31.85C265.798 31.71 265.728 31.5467 265.728 31.36C265.728 31.2667 265.728 31.1734 265.728 31.08C265.752 31.01 265.798 30.9167 265.868 30.8L268.598 24.325L261.878 8.47003C261.785 8.2367 261.738 8.07337 261.738 7.98003C261.762 7.77003 261.843 7.59503 261.983 7.45503C262.123 7.2917 262.298 7.21003 262.508 7.21003H265.343C265.623 7.21003 265.833 7.28003 265.973 7.42003C266.113 7.56003 266.218 7.7117 266.288 7.87503L270.943 19.32L275.738 7.87503C275.808 7.68837 275.913 7.5367 276.053 7.42003C276.193 7.28003 276.403 7.21003 276.683 7.21003H279.483C279.67 7.21003 279.833 7.28003 279.973 7.42003C280.137 7.56003 280.218 7.72337 280.218 7.91003C280.218 8.05003 280.172 8.2367 280.078 8.47003L270.173 31.395C270.08 31.5817 269.963 31.7334 269.823 31.85C269.683 31.99 269.473 32.06 269.193 32.06H266.428ZM2.24001 75.41C2.00668 75.41 1.80835 75.3284 1.64501 75.165C1.48168 75.0017 1.40001 74.8034 1.40001 74.57V51.785C1.40001 51.5284 1.48168 51.3184 1.64501 51.155C1.80835 50.9917 2.00668 50.91 2.24001 50.91H17.43C17.6867 50.91 17.8967 50.9917 18.06 51.155C18.2233 51.3184 18.305 51.5284 18.305 51.785V54.235C18.305 54.4917 18.2233 54.7017 18.06 54.865C17.8967 55.005 17.6867 55.075 17.43 55.075H6.19501V61.725H16.73C16.9867 61.725 17.1967 61.8067 17.36 61.97C17.5233 62.1334 17.605 62.3434 17.605 62.6V65.05C17.605 65.2834 17.5233 65.4817 17.36 65.645C17.1967 65.8084 16.9867 65.89 16.73 65.89H6.19501V74.57C6.19501 74.8034 6.11335 75.0017 5.95001 75.165C5.78668 75.3284 5.57668 75.41 5.32001 75.41H2.24001ZM29.4987 75.76C26.9087 75.76 24.8554 75.0134 23.3387 73.52C21.8221 72.0267 21.0054 69.9034 20.8887 67.15C20.8654 66.9167 20.8537 66.625 20.8537 66.275C20.8537 65.9017 20.8654 65.61 20.8887 65.4C20.9821 63.65 21.3787 62.1334 22.0787 60.85C22.8021 59.5667 23.7937 58.5867 25.0537 57.91C26.3137 57.21 27.7954 56.86 29.4987 56.86C31.3887 56.86 32.9754 57.2567 34.2587 58.05C35.5421 58.82 36.5104 59.905 37.1637 61.305C37.8171 62.6817 38.1437 64.28 38.1437 66.1V66.835C38.1437 67.0684 38.0621 67.2667 37.8987 67.43C37.7354 67.5934 37.5254 67.675 37.2687 67.675H25.6487C25.6487 67.675 25.6487 67.71 25.6487 67.78C25.6487 67.85 25.6487 67.9084 25.6487 67.955C25.6721 68.7717 25.8237 69.53 26.1037 70.23C26.4071 70.9067 26.8387 71.455 27.3987 71.875C27.9821 72.295 28.6704 72.505 29.4637 72.505C30.1171 72.505 30.6654 72.4117 31.1087 72.225C31.5521 72.015 31.9137 71.7817 32.1937 71.525C32.4737 71.2684 32.6721 71.0584 32.7887 70.895C32.9987 70.615 33.1621 70.4517 33.2787 70.405C33.4187 70.335 33.6171 70.3 33.8737 70.3H36.8837C37.1171 70.3 37.3037 70.37 37.4437 70.51C37.6071 70.65 37.6771 70.825 37.6537 71.035C37.6304 71.4084 37.4321 71.8634 37.0587 72.4C36.7087 72.9367 36.1954 73.4617 35.5187 73.975C34.8421 74.4884 33.9904 74.92 32.9637 75.27C31.9604 75.5967 30.8054 75.76 29.4987 75.76ZM25.6487 64.735H33.3837V64.63C33.3837 63.72 33.2321 62.9267 32.9287 62.25C32.6254 61.5734 32.1821 61.0367 31.5987 60.64C31.0154 60.2434 30.3154 60.045 29.4987 60.045C28.6821 60.045 27.9821 60.2434 27.3987 60.64C26.8154 61.0367 26.3721 61.5734 26.0687 62.25C25.7887 62.9267 25.6487 63.72 25.6487 64.63V64.735ZM47.1439 75.76C45.9306 75.76 44.8339 75.5267 43.8539 75.06C42.8739 74.57 42.0923 73.9284 41.5089 73.135C40.9489 72.3184 40.6689 71.4084 40.6689 70.405C40.6689 68.7717 41.3223 67.4767 42.6289 66.52C43.9589 65.54 45.7089 64.8867 47.8789 64.56L52.6739 63.86V63.125C52.6739 62.145 52.4289 61.3867 51.9389 60.85C51.4489 60.3134 50.6089 60.045 49.4189 60.045C48.5789 60.045 47.8906 60.22 47.3539 60.57C46.8406 60.8967 46.4556 61.34 46.1989 61.9C46.0123 62.2034 45.7439 62.355 45.3939 62.355H42.6289C42.3723 62.355 42.1739 62.285 42.0339 62.145C41.9173 62.005 41.8589 61.8184 41.8589 61.585C41.8823 61.2117 42.0339 60.7567 42.3139 60.22C42.5939 59.6834 43.0373 59.17 43.6439 58.68C44.2506 58.1667 45.0323 57.735 45.9889 57.385C46.9456 57.035 48.1006 56.86 49.4539 56.86C50.9239 56.86 52.1606 57.0467 53.1639 57.42C54.1906 57.77 55.0073 58.2484 55.6139 58.855C56.2206 59.4617 56.6639 60.1734 56.9439 60.99C57.2239 61.8067 57.3639 62.67 57.3639 63.58V74.57C57.3639 74.8034 57.2823 75.0017 57.1189 75.165C56.9556 75.3284 56.7573 75.41 56.5239 75.41H53.6889C53.4323 75.41 53.2223 75.3284 53.0589 75.165C52.9189 75.0017 52.8489 74.8034 52.8489 74.57V73.205C52.5456 73.6484 52.1373 74.0684 51.6239 74.465C51.1106 74.8384 50.4806 75.1534 49.7339 75.41C49.0106 75.6434 48.1473 75.76 47.1439 75.76ZM48.3339 72.435C49.1506 72.435 49.8856 72.26 50.5389 71.91C51.2156 71.56 51.7406 71.0234 52.1139 70.3C52.5106 69.5534 52.7089 68.62 52.7089 67.5V66.765L49.2089 67.325C47.8323 67.535 46.8056 67.8734 46.1289 68.34C45.4523 68.8067 45.1139 69.3784 45.1139 70.055C45.1139 70.5684 45.2656 71.0117 45.5689 71.385C45.8956 71.735 46.3039 72.0034 46.7939 72.19C47.2839 72.3534 47.7973 72.435 48.3339 72.435ZM69.9081 75.41C68.5081 75.41 67.3298 75.165 66.3731 74.675C65.4165 74.185 64.7048 73.4617 64.2381 72.505C63.7715 71.525 63.5381 70.3117 63.5381 68.865V60.92H60.7731C60.5398 60.92 60.3415 60.8384 60.1781 60.675C60.0148 60.5117 59.9331 60.3134 59.9331 60.08V58.05C59.9331 57.8167 60.0148 57.6184 60.1781 57.455C60.3415 57.2917 60.5398 57.21 60.7731 57.21H63.5381V51.4C63.5381 51.1667 63.6081 50.9684 63.7481 50.805C63.9115 50.6417 64.1215 50.56 64.3781 50.56H67.2131C67.4465 50.56 67.6448 50.6417 67.8081 50.805C67.9715 50.9684 68.0531 51.1667 68.0531 51.4V57.21H72.4281C72.6615 57.21 72.8598 57.2917 73.0231 57.455C73.1865 57.6184 73.2681 57.8167 73.2681 58.05V60.08C73.2681 60.3134 73.1865 60.5117 73.0231 60.675C72.8598 60.8384 72.6615 60.92 72.4281 60.92H68.0531V68.515C68.0531 69.4717 68.2165 70.2184 68.5431 70.755C68.8931 71.2917 69.4881 71.56 70.3281 71.56H72.7431C72.9765 71.56 73.1748 71.6417 73.3381 71.805C73.5015 71.9684 73.5831 72.1667 73.5831 72.4V74.57C73.5831 74.8034 73.5015 75.0017 73.3381 75.165C73.1748 75.3284 72.9765 75.41 72.7431 75.41H69.9081ZM83.443 75.76C82.0197 75.76 80.783 75.445 79.733 74.815C78.7064 74.1617 77.913 73.2517 77.353 72.085C76.793 70.895 76.513 69.495 76.513 67.885V58.05C76.513 57.8167 76.5947 57.6184 76.758 57.455C76.9214 57.2917 77.1197 57.21 77.353 57.21H80.433C80.6897 57.21 80.888 57.2917 81.028 57.455C81.1914 57.6184 81.273 57.8167 81.273 58.05V67.675C81.273 70.5684 82.5447 72.015 85.088 72.015C86.3014 72.015 87.258 71.63 87.958 70.86C88.6814 70.09 89.043 69.0284 89.043 67.675V58.05C89.043 57.8167 89.1247 57.6184 89.288 57.455C89.4514 57.2917 89.6497 57.21 89.883 57.21H92.963C93.1964 57.21 93.3947 57.2917 93.558 57.455C93.7214 57.6184 93.803 57.8167 93.803 58.05V74.57C93.803 74.8034 93.7214 75.0017 93.558 75.165C93.3947 75.3284 93.1964 75.41 92.963 75.41H90.128C89.8714 75.41 89.6614 75.3284 89.498 75.165C89.358 75.0017 89.288 74.8034 89.288 74.57V73.135C88.658 73.9517 87.8764 74.5934 86.943 75.06C86.0097 75.5267 84.843 75.76 83.443 75.76ZM99.2663 75.41C99.033 75.41 98.8346 75.3284 98.6713 75.165C98.508 75.0017 98.4263 74.8034 98.4263 74.57V58.085C98.4263 57.8284 98.508 57.6184 98.6713 57.455C98.8346 57.2917 99.033 57.21 99.2663 57.21H102.101C102.335 57.21 102.533 57.2917 102.696 57.455C102.883 57.6184 102.976 57.8284 102.976 58.085V59.52C103.513 58.7734 104.201 58.2017 105.041 57.805C105.905 57.4084 106.896 57.21 108.016 57.21H109.451C109.708 57.21 109.906 57.2917 110.046 57.455C110.21 57.6184 110.291 57.8167 110.291 58.05V60.57C110.291 60.8034 110.21 61.0017 110.046 61.165C109.906 61.3284 109.708 61.41 109.451 61.41H106.721C105.601 61.41 104.726 61.725 104.096 62.355C103.49 62.985 103.186 63.8484 103.186 64.945V74.57C103.186 74.8034 103.105 75.0017 102.941 75.165C102.778 75.3284 102.568 75.41 102.311 75.41H99.2663ZM120.622 75.76C118.032 75.76 115.978 75.0134 114.462 73.52C112.945 72.0267 112.128 69.9034 112.012 67.15C111.988 66.9167 111.977 66.625 111.977 66.275C111.977 65.9017 111.988 65.61 112.012 65.4C112.105 63.65 112.502 62.1334 113.202 60.85C113.925 59.5667 114.917 58.5867 116.177 57.91C117.437 57.21 118.918 56.86 120.622 56.86C122.512 56.86 124.098 57.2567 125.382 58.05C126.665 58.82 127.633 59.905 128.287 61.305C128.94 62.6817 129.267 64.28 129.267 66.1V66.835C129.267 67.0684 129.185 67.2667 129.022 67.43C128.858 67.5934 128.648 67.675 128.392 67.675H116.772C116.772 67.675 116.772 67.71 116.772 67.78C116.772 67.85 116.772 67.9084 116.772 67.955C116.795 68.7717 116.947 69.53 117.227 70.23C117.53 70.9067 117.962 71.455 118.522 71.875C119.105 72.295 119.793 72.505 120.587 72.505C121.24 72.505 121.788 72.4117 122.232 72.225C122.675 72.015 123.037 71.7817 123.317 71.525C123.597 71.2684 123.795 71.0584 123.912 70.895C124.122 70.615 124.285 70.4517 124.402 70.405C124.542 70.335 124.74 70.3 124.997 70.3H128.007C128.24 70.3 128.427 70.37 128.567 70.51C128.73 70.65 128.8 70.825 128.777 71.035C128.753 71.4084 128.555 71.8634 128.182 72.4C127.832 72.9367 127.318 73.4617 126.642 73.975C125.965 74.4884 125.113 74.92 124.087 75.27C123.083 75.5967 121.928 75.76 120.622 75.76ZM116.772 64.735H124.507V64.63C124.507 63.72 124.355 62.9267 124.052 62.25C123.748 61.5734 123.305 61.0367 122.722 60.64C122.138 60.2434 121.438 60.045 120.622 60.045C119.805 60.045 119.105 60.2434 118.522 60.64C117.938 61.0367 117.495 61.5734 117.192 62.25C116.912 62.9267 116.772 63.72 116.772 64.63V64.735ZM139.877 75.76C138.477 75.76 137.275 75.5967 136.272 75.27C135.292 74.9434 134.487 74.535 133.857 74.045C133.227 73.555 132.76 73.065 132.457 72.575C132.154 72.085 131.99 71.6767 131.967 71.35C131.944 71.0934 132.014 70.895 132.177 70.755C132.364 70.5917 132.562 70.51 132.772 70.51H135.537C135.63 70.51 135.712 70.5217 135.782 70.545C135.852 70.5684 135.945 70.6384 136.062 70.755C136.365 71.0117 136.68 71.28 137.007 71.56C137.357 71.84 137.765 72.085 138.232 72.295C138.699 72.4817 139.282 72.575 139.982 72.575C140.892 72.575 141.65 72.4 142.257 72.05C142.887 71.6767 143.202 71.1517 143.202 70.475C143.202 69.985 143.062 69.5884 142.782 69.285C142.525 68.9817 142.035 68.7134 141.312 68.48C140.589 68.2234 139.562 67.955 138.232 67.675C136.925 67.3717 135.84 66.9867 134.977 66.52C134.114 66.0534 133.472 65.47 133.052 64.77C132.632 64.07 132.422 63.2534 132.422 62.32C132.422 61.41 132.69 60.5467 133.227 59.73C133.787 58.89 134.604 58.2017 135.677 57.665C136.774 57.1284 138.127 56.86 139.737 56.86C140.997 56.86 142.094 57.0234 143.027 57.35C143.96 57.6534 144.73 58.0384 145.337 58.505C145.967 58.9717 146.445 59.45 146.772 59.94C147.099 60.4067 147.274 60.815 147.297 61.165C147.32 61.4217 147.25 61.6317 147.087 61.795C146.924 61.935 146.737 62.005 146.527 62.005H143.937C143.82 62.005 143.715 61.9817 143.622 61.935C143.529 61.8884 143.435 61.83 143.342 61.76C143.085 61.5267 142.805 61.2817 142.502 61.025C142.199 60.7684 141.825 60.5467 141.382 60.36C140.962 60.15 140.402 60.045 139.702 60.045C138.815 60.045 138.139 60.2434 137.672 60.64C137.205 61.0134 136.972 61.4917 136.972 62.075C136.972 62.4717 137.077 62.8217 137.287 63.125C137.52 63.405 137.975 63.6734 138.652 63.93C139.329 64.1867 140.355 64.455 141.732 64.735C143.295 65.015 144.532 65.435 145.442 65.995C146.375 66.5317 147.029 67.1617 147.402 67.885C147.799 68.585 147.997 69.3667 147.997 70.23C147.997 71.28 147.682 72.225 147.052 73.065C146.445 73.905 145.535 74.57 144.322 75.06C143.132 75.5267 141.65 75.76 139.877 75.76ZM166.283 75.41C166.049 75.41 165.851 75.3284 165.688 75.165C165.524 75.0017 165.443 74.8034 165.443 74.57V66.66L157.183 52.03C157.159 51.9834 157.136 51.925 157.113 51.855C157.089 51.785 157.078 51.715 157.078 51.645C157.078 51.435 157.148 51.26 157.288 51.12C157.428 50.98 157.591 50.91 157.778 50.91H160.893C161.173 50.91 161.394 50.98 161.558 51.12C161.744 51.26 161.873 51.4117 161.943 51.575L167.893 61.76L173.808 51.575C173.901 51.4117 174.029 51.26 174.193 51.12C174.379 50.98 174.613 50.91 174.893 50.91H177.973C178.183 50.91 178.358 50.98 178.498 51.12C178.638 51.26 178.708 51.435 178.708 51.645C178.708 51.715 178.696 51.785 178.673 51.855C178.673 51.925 178.649 51.9834 178.603 52.03L170.343 66.66V74.57C170.343 74.8034 170.261 75.0017 170.098 75.165C169.934 75.3284 169.724 75.41 169.468 75.41H166.283ZM186.867 75.76C185 75.76 183.425 75.4334 182.142 74.78C180.882 74.1267 179.914 73.205 179.237 72.015C178.584 70.825 178.21 69.4367 178.117 67.85C178.094 67.43 178.082 66.9167 178.082 66.31C178.082 65.7034 178.094 65.19 178.117 64.77C178.21 63.16 178.595 61.7717 179.272 60.605C179.972 59.415 180.952 58.4934 182.212 57.84C183.495 57.1867 185.047 56.86 186.867 56.86C188.687 56.86 190.227 57.1867 191.487 57.84C192.77 58.4934 193.75 59.415 194.427 60.605C195.127 61.7717 195.524 63.16 195.617 64.77C195.64 65.19 195.652 65.7034 195.652 66.31C195.652 66.9167 195.64 67.43 195.617 67.85C195.524 69.4367 195.139 70.825 194.462 72.015C193.809 73.205 192.84 74.1267 191.557 74.78C190.297 75.4334 188.734 75.76 186.867 75.76ZM186.867 72.295C188.104 72.295 189.06 71.91 189.737 71.14C190.414 70.3467 190.787 69.1917 190.857 67.675C190.88 67.325 190.892 66.87 190.892 66.31C190.892 65.75 190.88 65.295 190.857 64.945C190.787 63.4517 190.414 62.3084 189.737 61.515C189.06 60.7217 188.104 60.325 186.867 60.325C185.63 60.325 184.674 60.7217 183.997 61.515C183.32 62.3084 182.947 63.4517 182.877 64.945C182.854 65.295 182.842 65.75 182.842 66.31C182.842 66.87 182.854 67.325 182.877 67.675C182.947 69.1917 183.32 70.3467 183.997 71.14C184.674 71.91 185.63 72.295 186.867 72.295ZM206.285 75.76C204.861 75.76 203.625 75.445 202.575 74.815C201.548 74.1617 200.755 73.2517 200.195 72.085C199.635 70.895 199.355 69.495 199.355 67.885V58.05C199.355 57.8167 199.436 57.6184 199.6 57.455C199.763 57.2917 199.961 57.21 200.195 57.21H203.275C203.531 57.21 203.73 57.2917 203.87 57.455C204.033 57.6184 204.115 57.8167 204.115 58.05V67.675C204.115 70.5684 205.386 72.015 207.93 72.015C209.143 72.015 210.1 71.63 210.8 70.86C211.523 70.09 211.885 69.0284 211.885 67.675V58.05C211.885 57.8167 211.966 57.6184 212.13 57.455C212.293 57.2917 212.491 57.21 212.725 57.21H215.805C216.038 57.21 216.236 57.2917 216.4 57.455C216.563 57.6184 216.645 57.8167 216.645 58.05V74.57C216.645 74.8034 216.563 75.0017 216.4 75.165C216.236 75.3284 216.038 75.41 215.805 75.41H212.97C212.713 75.41 212.503 75.3284 212.34 75.165C212.2 75.0017 212.13 74.8034 212.13 74.57V73.135C211.5 73.9517 210.718 74.5934 209.785 75.06C208.851 75.5267 207.685 75.76 206.285 75.76ZM239.136 75.76C236.966 75.76 235.123 75.3867 233.606 74.64C232.113 73.87 230.969 72.785 230.176 71.385C229.383 69.9617 228.939 68.2584 228.846 66.275C228.823 65.3184 228.811 64.2917 228.811 63.195C228.811 62.0984 228.823 61.0484 228.846 60.045C228.939 58.085 229.383 56.3934 230.176 54.97C230.993 53.5467 232.148 52.4617 233.641 51.715C235.158 50.945 236.989 50.56 239.136 50.56C240.723 50.56 242.146 50.77 243.406 51.19C244.666 51.61 245.739 52.1934 246.626 52.94C247.513 53.6634 248.201 54.515 248.691 55.495C249.181 56.475 249.438 57.5367 249.461 58.68C249.484 58.89 249.414 59.065 249.251 59.205C249.111 59.345 248.936 59.415 248.726 59.415H245.401C245.144 59.415 244.934 59.3567 244.771 59.24C244.608 59.1 244.491 58.8784 244.421 58.575C244.048 57.035 243.406 55.985 242.496 55.425C241.586 54.865 240.454 54.585 239.101 54.585C237.538 54.585 236.289 55.0284 235.356 55.915C234.423 56.7784 233.921 58.2134 233.851 60.22C233.781 62.1334 233.781 64.0934 233.851 66.1C233.921 68.1067 234.423 69.5534 235.356 70.44C236.289 71.3034 237.538 71.735 239.101 71.735C240.454 71.735 241.586 71.455 242.496 70.895C243.406 70.3117 244.048 69.2617 244.421 67.745C244.491 67.4184 244.608 67.1967 244.771 67.08C244.934 66.9634 245.144 66.905 245.401 66.905H248.726C248.936 66.905 249.111 66.975 249.251 67.115C249.414 67.255 249.484 67.43 249.461 67.64C249.438 68.7834 249.181 69.845 248.691 70.825C248.201 71.805 247.513 72.6684 246.626 73.415C245.739 74.1384 244.666 74.71 243.406 75.13C242.146 75.55 240.723 75.76 239.136 75.76ZM258.477 75.76C257.264 75.76 256.167 75.5267 255.187 75.06C254.207 74.57 253.425 73.9284 252.842 73.135C252.282 72.3184 252.002 71.4084 252.002 70.405C252.002 68.7717 252.655 67.4767 253.962 66.52C255.292 65.54 257.042 64.8867 259.212 64.56L264.007 63.86V63.125C264.007 62.145 263.762 61.3867 263.272 60.85C262.782 60.3134 261.942 60.045 260.752 60.045C259.912 60.045 259.224 60.22 258.687 60.57C258.174 60.8967 257.789 61.34 257.532 61.9C257.345 62.2034 257.077 62.355 256.727 62.355H253.962C253.705 62.355 253.507 62.285 253.367 62.145C253.25 62.005 253.192 61.8184 253.192 61.585C253.215 61.2117 253.367 60.7567 253.647 60.22C253.927 59.6834 254.37 59.17 254.977 58.68C255.584 58.1667 256.365 57.735 257.322 57.385C258.279 57.035 259.434 56.86 260.787 56.86C262.257 56.86 263.494 57.0467 264.497 57.42C265.524 57.77 266.34 58.2484 266.947 58.855C267.554 59.4617 267.997 60.1734 268.277 60.99C268.557 61.8067 268.697 62.67 268.697 63.58V74.57C268.697 74.8034 268.615 75.0017 268.452 75.165C268.289 75.3284 268.09 75.41 267.857 75.41H265.022C264.765 75.41 264.555 75.3284 264.392 75.165C264.252 75.0017 264.182 74.8034 264.182 74.57V73.205C263.879 73.6484 263.47 74.0684 262.957 74.465C262.444 74.8384 261.814 75.1534 261.067 75.41C260.344 75.6434 259.48 75.76 258.477 75.76ZM259.667 72.435C260.484 72.435 261.219 72.26 261.872 71.91C262.549 71.56 263.074 71.0234 263.447 70.3C263.844 69.5534 264.042 68.62 264.042 67.5V66.765L260.542 67.325C259.165 67.535 258.139 67.8734 257.462 68.34C256.785 68.8067 256.447 69.3784 256.447 70.055C256.447 70.5684 256.599 71.0117 256.902 71.385C257.229 71.735 257.637 72.0034 258.127 72.19C258.617 72.3534 259.13 72.435 259.667 72.435ZM274.027 75.41C273.794 75.41 273.595 75.3284 273.432 75.165C273.269 75.0017 273.187 74.8034 273.187 74.57V58.05C273.187 57.8167 273.269 57.6184 273.432 57.455C273.595 57.2917 273.794 57.21 274.027 57.21H276.897C277.13 57.21 277.329 57.2917 277.492 57.455C277.655 57.6184 277.737 57.8167 277.737 58.05V59.485C278.344 58.7384 279.114 58.12 280.047 57.63C281.004 57.1167 282.182 56.86 283.582 56.86C285.005 56.86 286.242 57.1867 287.292 57.84C288.342 58.47 289.147 59.3684 289.707 60.535C290.29 61.7017 290.582 63.1017 290.582 64.735V74.57C290.582 74.8034 290.5 75.0017 290.337 75.165C290.174 75.3284 289.975 75.41 289.742 75.41H286.662C286.429 75.41 286.23 75.3284 286.067 75.165C285.904 75.0017 285.822 74.8034 285.822 74.57V64.945C285.822 63.5917 285.484 62.53 284.807 61.76C284.154 60.99 283.197 60.605 281.937 60.605C280.724 60.605 279.755 60.99 279.032 61.76C278.309 62.53 277.947 63.5917 277.947 64.945V74.57C277.947 74.8034 277.865 75.0017 277.702 75.165C277.539 75.3284 277.34 75.41 277.107 75.41H274.027ZM313.211 75.76C311.181 75.76 309.419 75.4217 307.926 74.745C306.433 74.045 305.278 72.9834 304.461 71.56C303.644 70.1134 303.236 68.27 303.236 66.03V51.785C303.236 51.5284 303.318 51.3184 303.481 51.155C303.644 50.9917 303.843 50.91 304.076 50.91H307.261C307.518 50.91 307.716 50.9917 307.856 51.155C308.019 51.3184 308.101 51.5284 308.101 51.785V66.03C308.101 67.9434 308.556 69.3667 309.466 70.3C310.376 71.21 311.624 71.665 313.211 71.665C314.798 71.665 316.034 71.21 316.921 70.3C317.831 69.3667 318.286 67.9434 318.286 66.03V51.785C318.286 51.5284 318.368 51.3184 318.531 51.155C318.694 50.9917 318.904 50.91 319.161 50.91H322.311C322.568 50.91 322.766 50.9917 322.906 51.155C323.069 51.3184 323.151 51.5284 323.151 51.785V66.03C323.151 68.27 322.743 70.1134 321.926 71.56C321.133 72.9834 319.989 74.045 318.496 74.745C317.026 75.4217 315.264 75.76 313.211 75.76ZM334.77 75.76C333.37 75.76 332.168 75.5967 331.165 75.27C330.185 74.9434 329.38 74.535 328.75 74.045C328.12 73.555 327.653 73.065 327.35 72.575C327.046 72.085 326.883 71.6767 326.86 71.35C326.836 71.0934 326.906 70.895 327.07 70.755C327.256 70.5917 327.455 70.51 327.665 70.51H330.43C330.523 70.51 330.605 70.5217 330.675 70.545C330.745 70.5684 330.838 70.6384 330.955 70.755C331.258 71.0117 331.573 71.28 331.9 71.56C332.25 71.84 332.658 72.085 333.125 72.295C333.591 72.4817 334.175 72.575 334.875 72.575C335.785 72.575 336.543 72.4 337.15 72.05C337.78 71.6767 338.095 71.1517 338.095 70.475C338.095 69.985 337.955 69.5884 337.675 69.285C337.418 68.9817 336.928 68.7134 336.205 68.48C335.481 68.2234 334.455 67.955 333.125 67.675C331.818 67.3717 330.733 66.9867 329.87 66.52C329.006 66.0534 328.365 65.47 327.945 64.77C327.525 64.07 327.315 63.2534 327.315 62.32C327.315 61.41 327.583 60.5467 328.12 59.73C328.68 58.89 329.496 58.2017 330.57 57.665C331.666 57.1284 333.02 56.86 334.63 56.86C335.89 56.86 336.986 57.0234 337.92 57.35C338.853 57.6534 339.623 58.0384 340.23 58.505C340.86 58.9717 341.338 59.45 341.665 59.94C341.991 60.4067 342.166 60.815 342.19 61.165C342.213 61.4217 342.143 61.6317 341.98 61.795C341.816 61.935 341.63 62.005 341.42 62.005H338.83C338.713 62.005 338.608 61.9817 338.515 61.935C338.421 61.8884 338.328 61.83 338.235 61.76C337.978 61.5267 337.698 61.2817 337.395 61.025C337.091 60.7684 336.718 60.5467 336.275 60.36C335.855 60.15 335.295 60.045 334.595 60.045C333.708 60.045 333.031 60.2434 332.565 60.64C332.098 61.0134 331.865 61.4917 331.865 62.075C331.865 62.4717 331.97 62.8217 332.18 63.125C332.413 63.405 332.868 63.6734 333.545 63.93C334.221 64.1867 335.248 64.455 336.625 64.735C338.188 65.015 339.425 65.435 340.335 65.995C341.268 66.5317 341.921 67.1617 342.295 67.885C342.691 68.585 342.89 69.3667 342.89 70.23C342.89 71.28 342.575 72.225 341.945 73.065C341.338 73.905 340.428 74.57 339.215 75.06C338.025 75.5267 336.543 75.76 334.77 75.76ZM354.342 75.76C351.752 75.76 349.699 75.0134 348.182 73.52C346.666 72.0267 345.849 69.9034 345.732 67.15C345.709 66.9167 345.697 66.625 345.697 66.275C345.697 65.9017 345.709 65.61 345.732 65.4C345.826 63.65 346.222 62.1334 346.922 60.85C347.646 59.5667 348.637 58.5867 349.897 57.91C351.157 57.21 352.639 56.86 354.342 56.86C356.232 56.86 357.819 57.2567 359.102 58.05C360.386 58.82 361.354 59.905 362.007 61.305C362.661 62.6817 362.987 64.28 362.987 66.1V66.835C362.987 67.0684 362.906 67.2667 362.742 67.43C362.579 67.5934 362.369 67.675 362.112 67.675H350.492C350.492 67.675 350.492 67.71 350.492 67.78C350.492 67.85 350.492 67.9084 350.492 67.955C350.516 68.7717 350.667 69.53 350.947 70.23C351.251 70.9067 351.682 71.455 352.242 71.875C352.826 72.295 353.514 72.505 354.307 72.505C354.961 72.505 355.509 72.4117 355.952 72.225C356.396 72.015 356.757 71.7817 357.037 71.525C357.317 71.2684 357.516 71.0584 357.632 70.895C357.842 70.615 358.006 70.4517 358.122 70.405C358.262 70.335 358.461 70.3 358.717 70.3H361.727C361.961 70.3 362.147 70.37 362.287 70.51C362.451 70.65 362.521 70.825 362.497 71.035C362.474 71.4084 362.276 71.8634 361.902 72.4C361.552 72.9367 361.039 73.4617 360.362 73.975C359.686 74.4884 358.834 74.92 357.807 75.27C356.804 75.5967 355.649 75.76 354.342 75.76ZM350.492 64.735H358.227V64.63C358.227 63.72 358.076 62.9267 357.772 62.25C357.469 61.5734 357.026 61.0367 356.442 60.64C355.859 60.2434 355.159 60.045 354.342 60.045C353.526 60.045 352.826 60.2434 352.242 60.64C351.659 61.0367 351.216 61.5734 350.912 62.25C350.632 62.9267 350.492 63.72 350.492 64.63V64.735Z" fill="#0B132A"/>
</svg>
